<svg width="20" height="20" viewBox="0 0 20 20" fill="none" xmlns="http://www.w3.org/2000/svg">
<path d="M10.2709 0.549194C7.78532 0.551924 5.40234 1.54052 3.64478 3.29808C1.88722 5.05564 0.898619 7.43863 0.895889 9.92419V17.7992C0.895889 18.197 1.05392 18.5786 1.33523 18.8599C1.61653 19.1412 1.99806 19.2992 2.39589 19.2992H10.2709C12.7573 19.2992 15.1419 18.3115 16.9 16.5533C18.6582 14.7952 19.6459 12.4106 19.6459 9.92419C19.6459 7.43779 18.6582 5.05322 16.9 3.29507C15.1419 1.53691 12.7573 0.549194 10.2709 0.549194ZM10.2709 17.7992H2.39589V9.92419C2.39589 8.36667 2.85775 6.84412 3.72307 5.54908C4.58838 4.25404 5.81829 3.24468 7.25726 2.64864C8.69623 2.0526 10.2796 1.89665 11.8072 2.20051C13.3348 2.50437 14.738 3.25439 15.8394 4.35573C16.9407 5.45707 17.6907 6.86026 17.9946 8.38786C18.2984 9.91546 18.1425 11.4989 17.5464 12.9378C16.9504 14.3768 15.941 15.6067 14.646 16.472C13.351 17.3373 11.8284 17.7992 10.2709 17.7992Z" fill="white"/>
</svg>
