<svg width="40" height="40" viewBox="0 0 40 40" fill="none" xmlns="http://www.w3.org/2000/svg">
<path d="M29.5195 22.5336V24.7836C29.5195 25.1814 29.3615 25.563 29.0802 25.8443C28.7989 26.1256 28.4174 26.2836 28.0195 26.2836H17.888C17.8188 26.2837 17.751 26.2646 17.692 26.2285C17.633 26.1924 17.5851 26.1407 17.5536 26.079C17.5222 26.0174 17.5084 25.9483 17.5138 25.8793C17.5192 25.8104 17.5436 25.7443 17.5842 25.6883L23.3573 17.7523C23.477 17.5934 23.5305 17.3943 23.5065 17.1968C23.4826 16.9993 23.3831 16.8187 23.2289 16.693C23.1496 16.6314 23.0587 16.5864 22.9617 16.5607C22.8646 16.5349 22.7634 16.5289 22.664 16.5429C22.5646 16.557 22.469 16.5909 22.383 16.6426C22.2969 16.6943 22.2221 16.7628 22.163 16.8439L15.413 26.1308C15.3776 26.1789 15.3312 26.2179 15.2777 26.2445C15.2243 26.271 15.1652 26.2845 15.1055 26.2836H10.0195C9.62171 26.2836 9.24018 26.1256 8.95887 25.8443C8.67757 25.563 8.51953 25.1814 8.51953 24.7836V22.6395C8.51953 22.4717 8.51953 22.3048 8.53172 22.1398C8.53653 22.0437 8.57816 21.953 8.64797 21.8867C8.71778 21.8204 8.81043 21.7835 8.90672 21.7836H11.5195C11.6223 21.7838 11.7241 21.7629 11.8185 21.7221C11.9129 21.6814 11.9979 21.6217 12.0682 21.5467C12.1386 21.4717 12.1927 21.383 12.2274 21.2862C12.262 21.1894 12.2763 21.0865 12.2695 20.9839C12.2529 20.7907 12.1637 20.611 12.0198 20.481C11.8759 20.3511 11.6881 20.2805 11.4942 20.2836H9.26203C9.20482 20.2836 9.14838 20.2704 9.09703 20.2452C9.04568 20.22 9.00078 20.1834 8.96576 20.1381C8.93075 20.0929 8.90654 20.0402 8.89501 19.9842C8.88348 19.9282 8.88492 19.8702 8.89922 19.8148C10.0242 15.7048 13.5548 12.5839 17.8542 12.1011C17.9067 12.0954 17.9599 12.1009 18.0101 12.1172C18.0604 12.1335 18.1066 12.1602 18.1459 12.1956C18.1851 12.231 18.2163 12.2743 18.2377 12.3226C18.259 12.371 18.2698 12.4233 18.2695 12.4761V15.0336C18.2693 15.1364 18.2902 15.2382 18.331 15.3326C18.3717 15.427 18.4315 15.512 18.5065 15.5823C18.5815 15.6526 18.6701 15.7068 18.7669 15.7414C18.8637 15.7761 18.9666 15.7904 19.0692 15.7836C19.2624 15.767 19.4421 15.6778 19.5721 15.5339C19.7021 15.39 19.7726 15.2022 19.7695 15.0083V12.4714C19.7692 12.4186 19.7801 12.3663 19.8014 12.3179C19.8227 12.2696 19.854 12.2263 19.8932 12.1909C19.9324 12.1555 19.9787 12.1288 20.0289 12.1125C20.0792 12.0962 20.1323 12.0907 20.1848 12.0964C22.2838 12.3323 24.2632 13.1947 25.8651 14.5714C27.467 15.9481 28.6173 17.7752 29.1661 19.8148C29.1804 19.8703 29.1818 19.9283 29.1703 19.9844C29.1587 20.0405 29.1344 20.0932 29.0993 20.1385C29.0641 20.1838 29.0191 20.2204 28.9676 20.2455C28.9162 20.2707 28.8596 20.2837 28.8023 20.2836H26.5448C26.3513 20.281 26.1639 20.3518 26.0204 20.4817C25.8769 20.6116 25.788 20.7911 25.7714 20.9839C25.7646 21.0865 25.7789 21.1894 25.8136 21.2862C25.8482 21.383 25.9024 21.4717 25.9727 21.5467C26.043 21.6217 26.128 21.6814 26.2224 21.7221C26.3168 21.7629 26.4186 21.7838 26.5214 21.7836H29.1389C29.2361 21.7835 29.3296 21.8212 29.3995 21.8888C29.4695 21.9563 29.5105 22.0483 29.5139 22.1455C29.5195 22.2739 29.5195 22.4033 29.5195 22.5336Z" fill="white" fill-opacity="0.7"/>
</svg>
