<svg width="25" height="25" viewBox="0 0 25 25" fill="none" xmlns="http://www.w3.org/2000/svg">
<path d="M19.6893 5.43883C18.7921 4.53262 17.725 3.81228 16.5491 3.31905C15.3731 2.82583 14.1114 2.5694 12.8362 2.56445H12.7621C10.1763 2.56445 7.69634 3.59168 5.86786 5.42016C4.03938 7.24864 3.01215 9.72859 3.01215 12.3145V17.5645C3.01215 18.1612 3.2492 18.7335 3.67116 19.1554C4.09311 19.5774 4.66541 19.8145 5.26215 19.8145H6.76215C7.35888 19.8145 7.93118 19.5774 8.35314 19.1554C8.77509 18.7335 9.01215 18.1612 9.01215 17.5645V13.8145C9.01215 13.2177 8.77509 12.6454 8.35314 12.2235C7.93118 11.8015 7.35888 11.5645 6.76215 11.5645H4.5459C4.69054 10.0006 5.27793 8.51046 6.23923 7.26855C7.20053 6.02665 8.49592 5.08448 9.97355 4.55248C11.4512 4.02048 13.0499 3.92069 14.5822 4.2648C16.1145 4.60892 17.517 5.38267 18.6253 6.49539C19.9799 7.85692 20.8131 9.65107 20.9793 11.5645H18.7621C18.1654 11.5645 17.5931 11.8015 17.1712 12.2235C16.7492 12.6454 16.5121 13.2177 16.5121 13.8145V17.5645C16.5121 18.1612 16.7492 18.7335 17.1712 19.1554C17.5931 19.5774 18.1654 19.8145 18.7621 19.8145H21.0121C21.0121 20.4112 20.7751 20.9835 20.3531 21.4054C19.9312 21.8274 19.3589 22.0645 18.7621 22.0645H13.5121C13.3132 22.0645 13.1225 22.1435 12.9818 22.2841C12.8412 22.4248 12.7621 22.6155 12.7621 22.8145C12.7621 23.0134 12.8412 23.2041 12.9818 23.3448C13.1225 23.4854 13.3132 23.5645 13.5121 23.5645H18.7621C19.7567 23.5645 20.7105 23.1694 21.4138 22.4661C22.1171 21.7628 22.5121 20.809 22.5121 19.8145V12.3145C22.517 11.0391 22.2702 9.77523 21.7858 8.59538C21.3014 7.41554 20.589 6.34287 19.6893 5.43883ZM6.76215 13.0645C6.96106 13.0645 7.15182 13.1435 7.29248 13.2841C7.43313 13.4248 7.51215 13.6155 7.51215 13.8145V17.5645C7.51215 17.7634 7.43313 17.9541 7.29248 18.0948C7.15182 18.2354 6.96106 18.3145 6.76215 18.3145H5.26215C5.06323 18.3145 4.87247 18.2354 4.73182 18.0948C4.59116 17.9541 4.51215 17.7634 4.51215 17.5645V13.0645H6.76215ZM18.7621 18.3145C18.5632 18.3145 18.3725 18.2354 18.2318 18.0948C18.0912 17.9541 18.0121 17.7634 18.0121 17.5645V13.8145C18.0121 13.6155 18.0912 13.4248 18.2318 13.2841C18.3725 13.1435 18.5632 13.0645 18.7621 13.0645H21.0121V18.3145H18.7621Z" fill="white"/>
</svg>
