<svg width="40" height="40" viewBox="0 0 40 40" fill="none" xmlns="http://www.w3.org/2000/svg">
<path d="M30.6016 27.9092C30.6016 28.1081 30.5225 28.2988 30.3819 28.4395C30.2412 28.5801 30.0505 28.6592 29.8516 28.6592H8.85156C8.65265 28.6592 8.46188 28.5801 8.32123 28.4395C8.18058 28.2988 8.10156 28.1081 8.10156 27.9092C8.10156 27.7102 8.18058 27.5195 8.32123 27.3788C8.46188 27.2382 8.65265 27.1592 8.85156 27.1592H29.8516C30.0505 27.1592 30.2412 27.2382 30.3819 27.3788C30.5225 27.5195 30.6016 27.7102 30.6016 27.9092ZM8.87969 17.6135C8.83508 17.4563 8.84309 17.2887 8.90249 17.1364C8.96189 16.9841 9.06943 16.8553 9.20875 16.7698L18.9587 10.7698C19.0769 10.6971 19.2129 10.6587 19.3516 10.6587C19.4903 10.6587 19.6262 10.6971 19.7444 10.7698L29.4944 16.7698C29.6337 16.8552 29.7414 16.9839 29.8009 17.1361C29.8604 17.2884 29.8685 17.4559 29.824 17.6132C29.7796 17.7705 29.6849 17.909 29.5545 18.0075C29.4241 18.1061 29.265 18.1593 29.1016 18.1592H26.8516V24.1592H28.3516C28.5505 24.1592 28.7412 24.2382 28.8819 24.3788C29.0225 24.5195 29.1016 24.7102 29.1016 24.9092C29.1016 25.1081 29.0225 25.2988 28.8819 25.4395C28.7412 25.5801 28.5505 25.6592 28.3516 25.6592H10.3516C10.1527 25.6592 9.96188 25.5801 9.82123 25.4395C9.68058 25.2988 9.60156 25.1081 9.60156 24.9092C9.60156 24.7102 9.68058 24.5195 9.82123 24.3788C9.96188 24.2382 10.1527 24.1592 10.3516 24.1592H11.8516V18.1592H9.60156C9.43824 18.1592 9.27936 18.106 9.14907 18.0075C9.01878 17.909 8.92419 17.7707 8.87969 17.6135ZM20.8516 23.4092C20.8516 23.6081 20.9306 23.7988 21.0712 23.9395C21.2119 24.0801 21.4026 24.1592 21.6016 24.1592C21.8005 24.1592 21.9912 24.0801 22.1319 23.9395C22.2725 23.7988 22.3516 23.6081 22.3516 23.4092V18.9092C22.3516 18.7102 22.2725 18.5195 22.1319 18.3788C21.9912 18.2382 21.8005 18.1592 21.6016 18.1592C21.4026 18.1592 21.2119 18.2382 21.0712 18.3788C20.9306 18.5195 20.8516 18.7102 20.8516 18.9092V23.4092ZM16.3516 23.4092C16.3516 23.6081 16.4306 23.7988 16.5712 23.9395C16.7119 24.0801 16.9026 24.1592 17.1016 24.1592C17.3005 24.1592 17.4912 24.0801 17.6319 23.9395C17.7725 23.7988 17.8516 23.6081 17.8516 23.4092V18.9092C17.8516 18.7102 17.7725 18.5195 17.6319 18.3788C17.4912 18.2382 17.3005 18.1592 17.1016 18.1592C16.9026 18.1592 16.7119 18.2382 16.5712 18.3788C16.4306 18.5195 16.3516 18.7102 16.3516 18.9092V23.4092Z" fill="white" fill-opacity="0.7"/>
</svg>
