<svg width="19" height="19" viewBox="0 0 19 19" fill="none" xmlns="http://www.w3.org/2000/svg">
<path d="M7.88556 17.981C7.88556 18.1799 7.80654 18.3706 7.66589 18.5113C7.52524 18.6519 7.33447 18.731 7.13556 18.731H1.13556C0.936647 18.731 0.745881 18.6519 0.605229 18.5113C0.464577 18.3706 0.385559 18.1799 0.385559 17.981V1.48096C0.385559 1.28204 0.464577 1.09128 0.605229 0.950627C0.745881 0.809975 0.936647 0.730957 1.13556 0.730957H7.13556C7.33447 0.730957 7.52524 0.809975 7.66589 0.950627C7.80654 1.09128 7.88556 1.28204 7.88556 1.48096C7.88556 1.67987 7.80654 1.87063 7.66589 2.01129C7.52524 2.15194 7.33447 2.23096 7.13556 2.23096H1.88556V17.231H7.13556C7.33447 17.231 7.52524 17.31 7.66589 17.4506C7.80654 17.5913 7.88556 17.782 7.88556 17.981ZM18.1662 9.20033L14.4162 5.45033C14.2755 5.3096 14.0846 5.23054 13.8856 5.23054C13.6865 5.23054 13.4957 5.3096 13.3549 5.45033C13.2142 5.59106 13.1351 5.78193 13.1351 5.98096C13.1351 6.17998 13.2142 6.37085 13.3549 6.51158L15.8252 8.98096H7.13556C6.93665 8.98096 6.74588 9.05997 6.60523 9.20063C6.46458 9.34128 6.38556 9.53204 6.38556 9.73096C6.38556 9.92987 6.46458 10.1206 6.60523 10.2613C6.74588 10.4019 6.93665 10.481 7.13556 10.481H15.8252L13.3549 12.9503C13.2142 13.0911 13.1351 13.2819 13.1351 13.481C13.1351 13.68 13.2142 13.8709 13.3549 14.0116C13.4957 14.1523 13.6865 14.2314 13.8856 14.2314C14.0846 14.2314 14.2755 14.1523 14.4162 14.0116L18.1662 10.2616C18.2359 10.1919 18.2912 10.1092 18.329 10.0182C18.3667 9.92711 18.3861 9.82952 18.3861 9.73096C18.3861 9.6324 18.3667 9.5348 18.329 9.44375C18.2912 9.3527 18.2359 9.26999 18.1662 9.20033Z" fill="#FF0000"/>
</svg>
