<svg width="40" height="40" viewBox="0 0 40 40" fill="none" xmlns="http://www.w3.org/2000/svg">
<g clip-path="url(#clip0_9_2098)">
<path d="M23.0874 27.3453C23.1611 27.4584 23.203 27.5894 23.2085 27.7244C23.214 27.8594 23.183 27.9934 23.1186 28.1122C23.0543 28.231 22.959 28.3302 22.843 28.3993C22.7269 28.4684 22.5943 28.505 22.4592 28.505H8.62735C8.49225 28.505 8.35967 28.4684 8.2436 28.3993C8.12754 28.3302 8.0323 28.231 7.96796 28.1122C7.90362 27.9934 7.87256 27.8594 7.87806 27.7244C7.88357 27.5894 7.92543 27.4584 7.99922 27.3453C9.05495 25.7202 10.6078 24.4801 12.4261 23.81C11.4209 23.1408 10.6578 22.1659 10.2495 21.0294C9.84125 19.8929 9.80956 18.6552 10.1591 17.4994C10.5087 16.3435 11.2209 15.3308 12.1906 14.6111C13.1602 13.8913 14.3357 13.5027 15.5433 13.5027C16.7509 13.5027 17.9264 13.8913 18.896 14.6111C19.8656 15.3308 20.5779 16.3435 20.9275 17.4994C21.277 18.6552 21.2453 19.8929 20.8371 21.0294C20.4288 22.1659 19.6657 23.1408 18.6605 23.81C20.4788 24.4801 22.0316 25.7202 23.0874 27.3453ZM31.3289 27.3312C30.2729 25.713 28.7235 24.4782 26.9105 23.81C28.0972 23.0106 28.9346 21.7891 29.2524 20.394C29.5702 18.999 29.3444 17.5353 28.621 16.3008C27.8977 15.0663 26.7311 14.1539 25.3587 13.7493C23.9863 13.3447 22.5113 13.4782 21.2339 14.1228C21.1851 14.148 21.1424 14.1837 21.1088 14.2272C21.0753 14.2708 21.0517 14.3212 21.0398 14.3748C21.0279 14.4285 21.028 14.4841 21.04 14.5378C21.052 14.5914 21.0756 14.6418 21.1092 14.6853C22.0591 15.8701 22.6046 17.3279 22.6658 18.8453C22.727 20.3626 22.3008 21.8596 21.4495 23.1172C21.3945 23.1993 21.3742 23.2999 21.393 23.397C21.4118 23.4941 21.4681 23.5799 21.5499 23.6356C22.6597 24.4102 23.6099 25.3916 24.3483 26.5259C24.6461 26.982 24.7677 27.5308 24.6905 28.07C24.6818 28.1236 24.6848 28.1785 24.6995 28.2308C24.7141 28.2831 24.7399 28.3317 24.7751 28.373C24.8103 28.4144 24.8541 28.4476 24.9034 28.4704C24.9528 28.4932 25.0065 28.505 25.0608 28.505H30.7139C30.8791 28.505 31.0396 28.4506 31.1706 28.35C31.3017 28.2495 31.3959 28.1086 31.4386 27.949C31.4647 27.8441 31.4684 27.7349 31.4495 27.6285C31.4306 27.522 31.3895 27.4207 31.3289 27.3312Z" fill="white" fill-opacity="0.7"/>
</g>
<defs>
<clipPath id="clip0_9_2098">
<rect width="24" height="24" fill="white" transform="translate(7.66846 9.00488)"/>
</clipPath>
</defs>
</svg>
