<svg width="40" height="40" viewBox="0 0 40 40" fill="none" xmlns="http://www.w3.org/2000/svg">
<path d="M29.0886 17.0647L27.7442 12.3575C27.6538 12.0453 27.4648 11.7706 27.2054 11.5746C26.9461 11.3786 26.6303 11.2718 26.3052 11.27H12.4302C12.1051 11.2718 11.7893 11.3786 11.5299 11.5746C11.2705 11.7706 11.0815 12.0453 10.9911 12.3575L9.64674 17.0647C9.62752 17.1315 9.61774 17.2006 9.61768 17.27V18.77C9.61768 19.3522 9.75322 19.9264 10.0136 20.4471C10.2739 20.9678 10.6519 21.4207 11.1177 21.77V28.52C11.1177 28.7189 11.1967 28.9097 11.3373 29.0504C11.478 29.191 11.6688 29.27 11.8677 29.27H26.8677C27.0666 29.27 27.2574 29.191 27.398 29.0504C27.5387 28.9097 27.6177 28.7189 27.6177 28.52V21.77C28.0834 21.4207 28.4614 20.9678 28.7218 20.4471C28.9821 19.9264 29.1177 19.3522 29.1177 18.77V17.27C29.1176 17.2006 29.1078 17.1315 29.0886 17.0647ZM15.6177 18.77C15.6175 19.1569 15.5176 19.5373 15.3276 19.8743C15.1376 20.2113 14.8638 20.4937 14.5329 20.694C14.2019 20.8944 13.8248 21.006 13.4381 21.0181C13.0514 21.0302 12.6681 20.9424 12.3252 20.7631C12.273 20.7225 12.2156 20.6891 12.1546 20.6638C11.8368 20.4604 11.5753 20.1803 11.3941 19.8494C11.2129 19.5185 11.1179 19.1473 11.1177 18.77V18.02H15.6177V18.77ZM21.6177 18.77C21.6177 19.3668 21.3806 19.9391 20.9587 20.361C20.5367 20.783 19.9644 21.02 19.3677 21.02C18.7709 21.02 18.1986 20.783 17.7767 20.361C17.3547 19.9391 17.1177 19.3668 17.1177 18.77V18.02H21.6177V18.77ZM27.6177 18.77C27.6174 19.1474 27.5222 19.5186 27.3408 19.8495C27.1595 20.1805 26.8978 20.4605 26.5799 20.6638C26.5196 20.6892 26.4629 20.7222 26.4111 20.7622C26.0683 20.9417 25.685 21.0297 25.2982 21.0177C24.9114 21.0058 24.5342 20.8943 24.2031 20.694C23.872 20.4937 23.5982 20.2114 23.408 19.8744C23.2179 19.5374 23.1179 19.157 23.1177 18.77V18.02H27.6177V18.77Z" fill="white" fill-opacity="0.7"/>
</svg>
