<svg width="40" height="40" viewBox="0 0 40 40" fill="none" xmlns="http://www.w3.org/2000/svg">
<path d="M29.5342 17.9629C29.7331 17.9629 29.9239 17.8839 30.0645 17.7432C30.2052 17.6026 30.2842 17.4118 30.2842 17.2129V14.2129C30.2842 13.8151 30.1261 13.4335 29.8448 13.1522C29.5635 12.8709 29.182 12.7129 28.7842 12.7129H10.7842C10.3864 12.7129 10.0048 12.8709 9.72352 13.1522C9.44221 13.4335 9.28418 13.8151 9.28418 14.2129V17.2129C9.28418 17.4118 9.3632 17.6026 9.50385 17.7432C9.6445 17.8839 9.83527 17.9629 10.0342 17.9629C10.6309 17.9629 11.2032 18.1999 11.6252 18.6219C12.0471 19.0439 12.2842 19.6162 12.2842 20.2129C12.2842 20.8096 12.0471 21.3819 11.6252 21.8039C11.2032 22.2258 10.6309 22.4629 10.0342 22.4629C9.83527 22.4629 9.6445 22.5419 9.50385 22.6826C9.3632 22.8232 9.28418 23.014 9.28418 23.2129V26.2129C9.28418 26.6107 9.44221 26.9922 9.72352 27.2736C10.0048 27.5549 10.3864 27.7129 10.7842 27.7129H28.7842C29.182 27.7129 29.5635 27.5549 29.8448 27.2736C30.1261 26.9922 30.2842 26.6107 30.2842 26.2129V23.2129C30.2842 23.014 30.2052 22.8232 30.0645 22.6826C29.9239 22.5419 29.7331 22.4629 29.5342 22.4629C28.9374 22.4629 28.3651 22.2258 27.9432 21.8039C27.5212 21.3819 27.2842 20.8096 27.2842 20.2129C27.2842 19.6162 27.5212 19.0439 27.9432 18.6219C28.3651 18.1999 28.9374 17.9629 29.5342 17.9629ZM10.7842 23.8879C11.6319 23.7158 12.394 23.2558 12.9415 22.5861C13.4889 21.9163 13.7879 21.0779 13.7879 20.2129C13.7879 19.3479 13.4889 18.5095 12.9415 17.8397C12.394 17.1699 11.6319 16.71 10.7842 16.5379V14.2129H16.0342V26.2129H10.7842V23.8879Z" fill="white" fill-opacity="0.7"/>
</svg>
