<svg width="24" height="16" viewBox="0 0 24 16" fill="none" xmlns="http://www.w3.org/2000/svg">
<path d="M10.9922 10.805C11.9974 10.1358 12.7605 9.16085 13.1688 8.02439C13.577 6.88792 13.6087 5.65024 13.2592 4.49437C12.9096 3.3385 12.1973 2.32581 11.2277 1.60605C10.2581 0.886294 9.08256 0.497681 7.87499 0.497681C6.66741 0.497681 5.4919 0.886294 4.52227 1.60605C3.55264 2.32581 2.84039 3.3385 2.49082 4.49437C2.14126 5.65024 2.17295 6.88792 2.5812 8.02439C2.98946 9.16085 3.75261 10.1358 4.7578 10.805C2.93951 11.4751 1.38665 12.7152 0.330923 14.3403C0.275438 14.4227 0.236898 14.5154 0.217543 14.6129C0.198188 14.7104 0.198405 14.8108 0.21818 14.9082C0.237956 15.0056 0.276896 15.0981 0.332737 15.1803C0.388577 15.2625 0.460205 15.3328 0.543457 15.3871C0.626708 15.4414 0.719922 15.4787 0.817681 15.4966C0.915439 15.5146 1.01579 15.5129 1.11291 15.4917C1.21002 15.4706 1.30196 15.4303 1.38338 15.3733C1.4648 15.3163 1.53407 15.2437 1.58717 15.1597C2.26816 14.1123 3.20001 13.2516 4.29808 12.6558C5.39616 12.0599 6.62568 11.7479 7.87499 11.7479C9.12429 11.7479 10.3538 12.0599 11.4519 12.6558C12.55 13.2516 13.4818 14.1123 14.1628 15.1597C14.2728 15.3231 14.4427 15.4368 14.6358 15.476C14.829 15.5152 15.0297 15.4768 15.1948 15.3692C15.3598 15.2615 15.4759 15.0932 15.5179 14.9007C15.5598 14.7082 15.5243 14.5068 15.419 14.3403C14.3633 12.7152 12.8105 11.4751 10.9922 10.805ZM3.74999 6.12496C3.74999 5.30911 3.99191 4.51159 4.44517 3.83324C4.89843 3.15488 5.54267 2.62617 6.29642 2.31396C7.05016 2.00175 7.87956 1.92006 8.67973 2.07922C9.47991 2.23839 10.2149 2.63126 10.7918 3.20815C11.3687 3.78504 11.7616 4.52004 11.9207 5.32022C12.0799 6.12039 11.9982 6.94979 11.686 7.70353C11.3738 8.45728 10.8451 9.10151 10.1667 9.55477C9.48836 10.008 8.69083 10.25 7.87499 10.25C6.78135 10.2487 5.73286 9.81373 4.95954 9.04041C4.18622 8.26709 3.75123 7.2186 3.74999 6.12496ZM23.4506 15.3781C23.284 15.4867 23.0811 15.5247 22.8865 15.4838C22.6919 15.4428 22.5215 15.3262 22.4128 15.1597C21.7326 14.1116 20.8009 13.2506 19.7026 12.655C18.6043 12.0594 17.3744 11.7483 16.125 11.75C15.9261 11.75 15.7353 11.6709 15.5947 11.5303C15.454 11.3896 15.375 11.1989 15.375 11C15.375 10.8011 15.454 10.6103 15.5947 10.4696C15.7353 10.329 15.9261 10.25 16.125 10.25C16.7325 10.2494 17.3323 10.1147 17.8817 9.85538C18.431 9.59611 18.9163 9.2187 19.3029 8.75013C19.6895 8.28155 19.9679 7.73337 20.1181 7.14475C20.2682 6.55614 20.2866 5.94162 20.1717 5.3451C20.0569 4.74859 19.8117 4.1848 19.4537 3.69402C19.0957 3.20325 18.6337 2.7976 18.1008 2.50606C17.5678 2.21452 16.9771 2.04429 16.3707 2.00752C15.7644 1.97076 15.1574 2.06838 14.5931 2.2934C14.5011 2.33317 14.4021 2.3541 14.3018 2.35495C14.2016 2.35579 14.1022 2.33654 14.0096 2.29833C13.9169 2.26012 13.8329 2.20373 13.7624 2.13248C13.6919 2.06123 13.6364 1.97658 13.5992 1.88352C13.5619 1.79046 13.5437 1.69088 13.5456 1.59067C13.5476 1.49046 13.5695 1.39165 13.6103 1.30007C13.651 1.2085 13.7097 1.12602 13.7829 1.05752C13.856 0.98901 13.9422 0.935862 14.0362 0.901213C15.3276 0.386198 16.764 0.367665 18.0682 0.849188C19.3724 1.33071 20.4521 2.27817 21.099 3.50879C21.7459 4.73941 21.9141 6.16599 21.5712 7.51332C21.2283 8.86066 20.3986 10.0333 19.2422 10.805C21.0605 11.4751 22.6133 12.7152 23.669 14.3403C23.7777 14.5069 23.8157 14.7098 23.7747 14.9044C23.7338 15.099 23.6172 15.2694 23.4506 15.3781Z" fill="#FF0000"/>
</svg>
