<svg width="20" height="21" viewBox="0 0 20 21" fill="none" xmlns="http://www.w3.org/2000/svg">
<path d="M5.82477 14.9202C5.9036 14.9794 5.99333 15.0225 6.08883 15.0471C6.18433 15.0716 6.28373 15.077 6.38135 15.0631C6.47896 15.0492 6.57287 15.0161 6.6577 14.9659C6.74252 14.9156 6.81661 14.8491 6.87571 14.7702C7.3298 14.1647 7.91862 13.6733 8.59554 13.3349C9.27247 12.9964 10.0189 12.8202 10.7757 12.8202C11.5325 12.8202 12.279 12.9964 12.9559 13.3349C13.6328 13.6733 14.2216 14.1647 14.6757 14.7702C14.7348 14.849 14.8088 14.9154 14.8936 14.9655C14.9783 15.0157 15.0721 15.0487 15.1696 15.0627C15.2671 15.0766 15.3664 15.0712 15.4618 15.0467C15.5573 15.0223 15.6469 14.9793 15.7257 14.9202C15.8045 14.8611 15.8709 14.7871 15.9211 14.7023C15.9712 14.6176 16.0042 14.5238 16.0182 14.4263C16.0321 14.3288 16.0267 14.2295 16.0022 14.1341C15.9778 14.0386 15.9348 13.949 15.8757 13.8702C15.2116 12.9798 14.326 12.2788 13.307 11.8368C13.8654 11.3269 14.2567 10.6601 14.4294 9.92388C14.6021 9.18766 14.5482 8.41643 14.2748 7.7114C14.0014 7.00636 13.5211 6.40047 12.8972 5.97323C12.2733 5.54599 11.5347 5.31737 10.7785 5.31737C10.0223 5.31737 9.28379 5.54599 8.65984 5.97323C8.0359 6.40047 7.5557 7.00636 7.28226 7.7114C7.00883 8.41643 6.95493 9.18766 7.12765 9.92388C7.30037 10.6601 7.69163 11.3269 8.25009 11.8368C7.229 12.2779 6.34138 12.979 5.67571 13.8702C5.55626 14.0292 5.50487 14.2292 5.53282 14.4261C5.56077 14.623 5.66579 14.8007 5.82477 14.9202ZM8.52571 9.07019C8.52571 8.62518 8.65767 8.19017 8.9049 7.82016C9.15214 7.45015 9.50354 7.16176 9.91467 6.99146C10.3258 6.82116 10.7782 6.77661 11.2147 6.86342C11.6511 6.95024 12.052 7.16453 12.3667 7.4792C12.6814 7.79387 12.8957 8.19478 12.9825 8.63124C13.0693 9.06769 13.0247 9.52009 12.8544 9.93123C12.6841 10.3424 12.3958 10.6938 12.0257 10.941C11.6557 11.1882 11.2207 11.3202 10.7757 11.3202C10.179 11.3202 9.60668 11.0831 9.18472 10.6612C8.76276 10.2392 8.52571 9.66693 8.52571 9.07019ZM17.5257 0.82019H4.02571C3.62789 0.82019 3.24636 0.978226 2.96505 1.25953C2.68375 1.54083 2.52571 1.92237 2.52571 2.32019V4.57019H1.02571C0.826799 4.57019 0.636033 4.64921 0.495381 4.78986C0.354729 4.93051 0.275711 5.12128 0.275711 5.32019C0.275711 5.5191 0.354729 5.70987 0.495381 5.85052C0.636033 5.99117 0.826799 6.07019 1.02571 6.07019H2.52571V9.82019H1.02571C0.826799 9.82019 0.636033 9.89921 0.495381 10.0399C0.354729 10.1805 0.275711 10.3713 0.275711 10.5702C0.275711 10.7691 0.354729 10.9599 0.495381 11.1005C0.636033 11.2412 0.826799 11.3202 1.02571 11.3202H2.52571V15.0702H1.02571C0.826799 15.0702 0.636033 15.1492 0.495381 15.2899C0.354729 15.4305 0.275711 15.6213 0.275711 15.8202C0.275711 16.0191 0.354729 16.2099 0.495381 16.3505C0.636033 16.4912 0.826799 16.5702 1.02571 16.5702H2.52571V18.8202C2.52571 19.218 2.68375 19.5995 2.96505 19.8808C3.24636 20.1622 3.62789 20.3202 4.02571 20.3202H17.5257C17.9235 20.3202 18.3051 20.1622 18.5864 19.8808C18.8677 19.5995 19.0257 19.218 19.0257 18.8202V2.32019C19.0257 1.92237 18.8677 1.54083 18.5864 1.25953C18.3051 0.978226 17.9235 0.82019 17.5257 0.82019ZM17.5257 18.8202H4.02571V2.32019H17.5257V18.8202Z" fill="white"/>
</svg>
