<svg width="25" height="16" viewBox="0 0 25 16" fill="none" xmlns="http://www.w3.org/2000/svg">
<path d="M11.7009 11.1924C12.7061 10.5232 13.4692 9.5483 13.8775 8.41184C14.2857 7.27537 14.3174 6.03769 13.9678 4.88182C13.6183 3.72595 12.906 2.71326 11.9364 1.9935C10.9668 1.27374 9.79125 0.885132 8.58368 0.885132C7.37611 0.885132 6.20059 1.27374 5.23097 1.9935C4.26134 2.71326 3.54908 3.72595 3.19952 4.88182C2.84995 6.03769 2.88164 7.27537 3.2899 8.41184C3.69815 9.5483 4.4613 10.5232 5.46649 11.1924C3.6482 11.8626 2.09534 13.1027 1.03962 14.7277C0.984132 14.8102 0.945592 14.9029 0.926237 15.0004C0.906883 15.0978 0.907099 15.1982 0.926875 15.2956C0.94665 15.393 0.98559 15.4855 1.04143 15.5678C1.09727 15.65 1.1689 15.7203 1.25215 15.7746C1.3354 15.8289 1.42862 15.8661 1.52638 15.8841C1.62413 15.902 1.72449 15.9004 1.8216 15.8792C1.91872 15.858 2.01065 15.8178 2.09207 15.7608C2.17349 15.7037 2.24276 15.6311 2.29587 15.5471C2.97686 14.4997 3.9087 13.639 5.00678 13.0432C6.10485 12.4474 7.33437 12.1353 8.58368 12.1353C9.83299 12.1353 11.0625 12.4474 12.1606 13.0432C13.2587 13.639 14.1905 14.4997 14.8715 15.5471C14.9815 15.7106 15.1514 15.8242 15.3445 15.8634C15.5376 15.9026 15.7384 15.8643 15.9035 15.7566C16.0685 15.649 16.1846 15.4807 16.2266 15.2881C16.2685 15.0956 16.233 14.8943 16.1277 14.7277C15.072 13.1027 13.5192 11.8626 11.7009 11.1924ZM4.45868 6.51241C4.45868 5.69657 4.70061 4.89904 5.15387 4.22069C5.60713 3.54233 6.25137 3.01362 7.00511 2.70141C7.75886 2.3892 8.58826 2.30751 9.38843 2.46668C10.1886 2.62584 10.9236 3.01871 11.5005 3.5956C12.0774 4.17249 12.4703 4.90749 12.6294 5.70767C12.7886 6.50784 12.7069 7.33724 12.3947 8.09098C12.0825 8.84473 11.5538 9.48897 10.8754 9.94223C10.1971 10.3955 9.39953 10.6374 8.58368 10.6374C7.49004 10.6362 6.44155 10.2012 5.66823 9.42786C4.89492 8.65454 4.45992 7.60605 4.45868 6.51241ZM24.1593 15.7655C23.9927 15.8742 23.7898 15.9122 23.5952 15.8712C23.4005 15.8303 23.2302 15.7137 23.1215 15.5471C22.4413 14.4991 21.5096 13.638 20.4113 13.0425C19.313 12.4469 18.0831 12.1357 16.8337 12.1374C16.6348 12.1374 16.444 12.0584 16.3034 11.9177C16.1627 11.7771 16.0837 11.5863 16.0837 11.3874C16.0837 11.1885 16.1627 10.9977 16.3034 10.8571C16.444 10.7164 16.6348 10.6374 16.8337 10.6374C17.4412 10.6368 18.041 10.5021 18.5904 10.2428C19.1397 9.98356 19.625 9.60615 20.0116 9.13758C20.3982 8.669 20.6766 8.12082 20.8267 7.5322C20.9769 6.94359 20.9952 6.32907 20.8804 5.73255C20.7656 5.13604 20.5204 4.57225 20.1624 4.08147C19.8044 3.5907 19.3424 3.18505 18.8095 2.89351C18.2765 2.60197 17.6858 2.43174 17.0794 2.39498C16.4731 2.35821 15.8661 2.45583 15.3018 2.68085C15.2098 2.72062 15.1108 2.74155 15.0105 2.7424C14.9103 2.74324 14.8109 2.72399 14.7183 2.68578C14.6256 2.64757 14.5416 2.59118 14.4711 2.51993C14.4006 2.44868 14.3451 2.36403 14.3078 2.27097C14.2706 2.17791 14.2524 2.07833 14.2543 1.97812C14.2563 1.87791 14.2782 1.7791 14.319 1.68753C14.3597 1.59595 14.4184 1.51348 14.4916 1.44497C14.5647 1.37646 14.6509 1.32331 14.7449 1.28866C16.0363 0.773649 17.4726 0.755116 18.7769 1.23664C20.0811 1.71816 21.1608 2.66562 21.8077 3.89624C22.4546 5.12686 22.6228 6.55344 22.2799 7.90077C21.937 9.24811 21.1073 10.4207 19.9509 11.1924C21.7692 11.8626 23.322 13.1027 24.3777 14.7277C24.4864 14.8943 24.5244 15.0972 24.4834 15.2919C24.4425 15.4865 24.3259 15.6569 24.1593 15.7655Z" fill="white"/>
</svg>
