<svg width="30" height="30" viewBox="0 0 30 30" fill="none" xmlns="http://www.w3.org/2000/svg">
<rect x="0.15" y="0.15" width="29.7" height="29.7" rx="6.85" stroke="#DADADA" stroke-width="0.3"/>
<path d="M15 13C14.6044 13 14.2178 13.1173 13.8889 13.3371C13.56 13.5568 13.3036 13.8692 13.1522 14.2346C13.0009 14.6001 12.9613 15.0022 13.0384 15.3902C13.1156 15.7781 13.3061 16.1345 13.5858 16.4142C13.8655 16.6939 14.2219 16.8844 14.6098 16.9616C14.9978 17.0387 15.3999 16.9991 15.7654 16.8478C16.1308 16.6964 16.4432 16.44 16.6629 16.1111C16.8827 15.7822 17 15.3956 17 15C17 14.4696 16.7893 13.9609 16.4142 13.5858C16.0391 13.2107 15.5304 13 15 13ZM15 16C14.8022 16 14.6089 15.9414 14.4444 15.8315C14.28 15.7216 14.1518 15.5654 14.0761 15.3827C14.0004 15.2 13.9806 14.9989 14.0192 14.8049C14.0578 14.6109 14.153 14.4327 14.2929 14.2929C14.4327 14.153 14.6109 14.0578 14.8049 14.0192C14.9989 13.9806 15.2 14.0004 15.3827 14.0761C15.5654 14.1518 15.7216 14.28 15.8315 14.4444C15.9414 14.6089 16 14.8022 16 15C16 15.2652 15.8946 15.5196 15.7071 15.7071C15.5196 15.8946 15.2652 16 15 16ZM15 12C15.3956 12 15.7822 11.8827 16.1111 11.6629C16.44 11.4432 16.6964 11.1308 16.8478 10.7654C16.9991 10.3999 17.0387 9.99778 16.9616 9.60982C16.8844 9.22186 16.6939 8.86549 16.4142 8.58579C16.1345 8.30608 15.7781 8.1156 15.3902 8.03843C15.0022 7.96126 14.6001 8.00087 14.2346 8.15224C13.8692 8.30362 13.5568 8.55996 13.3371 8.88886C13.1173 9.21776 13 9.60444 13 10C13 10.5304 13.2107 11.0391 13.5858 11.4142C13.9609 11.7893 14.4696 12 15 12ZM15 9C15.1978 9 15.3911 9.05865 15.5556 9.16853C15.72 9.27841 15.8482 9.43459 15.9239 9.61732C15.9996 9.80004 16.0194 10.0011 15.9808 10.1951C15.9422 10.3891 15.847 10.5673 15.7071 10.7071C15.5673 10.847 15.3891 10.9422 15.1951 10.9808C15.0011 11.0194 14.8 10.9996 14.6173 10.9239C14.4346 10.8482 14.2784 10.72 14.1685 10.5556C14.0587 10.3911 14 10.1978 14 10C14 9.73478 14.1054 9.48043 14.2929 9.29289C14.4804 9.10536 14.7348 9 15 9ZM15 18C14.6044 18 14.2178 18.1173 13.8889 18.3371C13.56 18.5568 13.3036 18.8692 13.1522 19.2346C13.0009 19.6001 12.9613 20.0022 13.0384 20.3902C13.1156 20.7781 13.3061 21.1345 13.5858 21.4142C13.8655 21.6939 14.2219 21.8844 14.6098 21.9616C14.9978 22.0387 15.3999 21.9991 15.7654 21.8478C16.1308 21.6964 16.4432 21.44 16.6629 21.1111C16.8827 20.7822 17 20.3956 17 20C17 19.4696 16.7893 18.9609 16.4142 18.5858C16.0391 18.2107 15.5304 18 15 18ZM15 21C14.8022 21 14.6089 20.9414 14.4444 20.8315C14.28 20.7216 14.1518 20.5654 14.0761 20.3827C14.0004 20.2 13.9806 19.9989 14.0192 19.8049C14.0578 19.6109 14.153 19.4327 14.2929 19.2929C14.4327 19.153 14.6109 19.0578 14.8049 19.0192C14.9989 18.9806 15.2 19.0004 15.3827 19.0761C15.5654 19.1518 15.7216 19.28 15.8315 19.4444C15.9414 19.6089 16 19.8022 16 20C16 20.2652 15.8946 20.5196 15.7071 20.7071C15.5196 20.8946 15.2652 21 15 21Z" fill="black"/>
</svg>
