<svg width="49" height="49" viewBox="0 0 49 49" fill="none" xmlns="http://www.w3.org/2000/svg">
<circle cx="24.5" cy="24.5" r="24" fill="#992C55" fill-opacity="0.1" stroke="#992C55"/>
<path d="M31.6893 18.4388C30.7921 17.5326 29.725 16.8123 28.5491 16.3191C27.3731 15.8258 26.1114 15.5694 24.8362 15.5645H24.7621C22.1763 15.5645 19.6963 16.5917 17.8679 18.4202C16.0394 20.2486 15.0121 22.7286 15.0121 25.3145V30.5645C15.0121 31.1612 15.2492 31.7335 15.6712 32.1554C16.0931 32.5774 16.6654 32.8145 17.2621 32.8145H18.7621C19.3589 32.8145 19.9312 32.5774 20.3531 32.1554C20.7751 31.7335 21.0121 31.1612 21.0121 30.5645V26.8145C21.0121 26.2177 20.7751 25.6454 20.3531 25.2235C19.9312 24.8015 19.3589 24.5645 18.7621 24.5645H16.5459C16.6905 23.0006 17.2779 21.5105 18.2392 20.2686C19.2005 19.0266 20.4959 18.0845 21.9736 17.5525C23.4512 17.0205 25.0499 16.9207 26.5822 17.2648C28.1145 17.6089 29.517 18.3827 30.6253 19.4954C31.9799 20.8569 32.8131 22.6511 32.9793 24.5645H30.7621C30.1654 24.5645 29.5931 24.8015 29.1712 25.2235C28.7492 25.6454 28.5121 26.2177 28.5121 26.8145V30.5645C28.5121 31.1612 28.7492 31.7335 29.1712 32.1554C29.5931 32.5774 30.1654 32.8145 30.7621 32.8145H33.0121C33.0121 33.4112 32.7751 33.9835 32.3531 34.4054C31.9312 34.8274 31.3589 35.0645 30.7621 35.0645H25.5121C25.3132 35.0645 25.1225 35.1435 24.9818 35.2841C24.8412 35.4248 24.7621 35.6155 24.7621 35.8145C24.7621 36.0134 24.8412 36.2041 24.9818 36.3448C25.1225 36.4854 25.3132 36.5645 25.5121 36.5645H30.7621C31.7567 36.5645 32.7105 36.1694 33.4138 35.4661C34.1171 34.7628 34.5121 33.809 34.5121 32.8145V25.3145C34.517 24.0391 34.2702 22.7752 33.7858 21.5954C33.3014 20.4155 32.589 19.3429 31.6893 18.4388ZM18.7621 26.0645C18.9611 26.0645 19.1518 26.1435 19.2925 26.2841C19.4331 26.4248 19.5121 26.6155 19.5121 26.8145V30.5645C19.5121 30.7634 19.4331 30.9541 19.2925 31.0948C19.1518 31.2354 18.9611 31.3145 18.7621 31.3145H17.2621C17.0632 31.3145 16.8725 31.2354 16.7318 31.0948C16.5912 30.9541 16.5121 30.7634 16.5121 30.5645V26.0645H18.7621ZM30.7621 31.3145C30.5632 31.3145 30.3725 31.2354 30.2318 31.0948C30.0912 30.9541 30.0121 30.7634 30.0121 30.5645V26.8145C30.0121 26.6155 30.0912 26.4248 30.2318 26.2841C30.3725 26.1435 30.5632 26.0645 30.7621 26.0645H33.0121V31.3145H30.7621Z" fill="#992C55"/>
</svg>
