<svg width="30" height="30" viewBox="0 0 30 30" fill="none" xmlns="http://www.w3.org/2000/svg">
<rect x="0.15" y="0.15" width="29.7" height="29.7" rx="6.85" stroke="#DADADA" stroke-width="0.3"/>
<path d="M20.0142 19.1756C20.0606 19.222 20.0975 19.2772 20.1226 19.3379C20.1478 19.3986 20.1607 19.4636 20.1607 19.5293C20.1607 19.595 20.1478 19.6601 20.1226 19.7208C20.0975 19.7815 20.0606 19.8366 20.0142 19.8831C19.9677 19.9295 19.9126 19.9664 19.8519 19.9915C19.7912 20.0167 19.7261 20.0296 19.6604 20.0296C19.5947 20.0296 19.5297 20.0167 19.469 19.9915C19.4083 19.9664 19.3531 19.9295 19.3067 19.8831L15.1604 15.7362L11.0142 19.8831C10.9204 19.9769 10.7931 20.0296 10.6604 20.0296C10.5278 20.0296 10.4005 19.9769 10.3067 19.8831C10.2129 19.7893 10.1602 19.662 10.1602 19.5293C10.1602 19.3966 10.2129 19.2694 10.3067 19.1756L14.4536 15.0293L10.3067 10.8831C10.2129 10.7893 10.1602 10.662 10.1602 10.5293C10.1602 10.3966 10.2129 10.2694 10.3067 10.1756C10.4005 10.0818 10.5278 10.0291 10.6604 10.0291C10.7931 10.0291 10.9204 10.0818 11.0142 10.1756L15.1604 14.3225L19.3067 10.1756C19.4005 10.0818 19.5278 10.0291 19.6604 10.0291C19.7931 10.0291 19.9204 10.0818 20.0142 10.1756C20.108 10.2694 20.1607 10.3966 20.1607 10.5293C20.1607 10.662 20.108 10.7893 20.0142 10.8831L15.8673 15.0293L20.0142 19.1756Z" fill="#FF0000"/>
</svg>
