<svg width="73" height="73" viewBox="0 0 73 73" fill="none" xmlns="http://www.w3.org/2000/svg">
<rect x="0.15" y="0.15" width="72.7" height="72.7" rx="9.85" stroke="#9D9D9D" stroke-width="0.3"/>
<path d="M46.3113 31.8785L42.1216 27.6897C41.9823 27.5504 41.8169 27.4399 41.6349 27.3645C41.4529 27.2891 41.2578 27.2502 41.0608 27.2502C40.8638 27.2502 40.6687 27.2891 40.4867 27.3645C40.3047 27.4399 40.1393 27.5504 40 27.6897L28.4397 39.25C28.2998 39.3888 28.1889 39.554 28.1134 39.736C28.0379 39.9181 27.9994 40.1133 28 40.3103V44.5C28 44.8978 28.158 45.2794 28.4393 45.5607C28.7207 45.842 29.1022 46 29.5 46H45.25C45.4489 46 45.6397 45.921 45.7803 45.7803C45.921 45.6397 46 45.4489 46 45.25C46 45.0511 45.921 44.8603 45.7803 44.7197C45.6397 44.579 45.4489 44.5 45.25 44.5H35.8113L46.3113 34C46.4506 33.8607 46.5611 33.6954 46.6365 33.5133C46.7119 33.3313 46.7507 33.1362 46.7507 32.9392C46.7507 32.7422 46.7119 32.5471 46.6365 32.3651C46.5611 32.1831 46.4506 32.0177 46.3113 31.8785ZM33.6897 44.5H29.5V40.3103L37.75 32.0603L41.9397 36.25L33.6897 44.5ZM43 35.1897L38.8113 31L41.0613 28.75L45.25 32.9397L43 35.1897Z" fill="black"/>
</svg>
