<svg width="73" height="73" viewBox="0 0 73 73" fill="none" xmlns="http://www.w3.org/2000/svg">
<rect x="0.15" y="0.15" width="72.7" height="72.7" rx="9.85" stroke="#9D9D9D" stroke-width="0.3"/>
<path d="M47.2 42.6335L39.0016 28.3957C38.7967 28.0469 38.5042 27.7576 38.1532 27.5567C37.8021 27.3557 37.4046 27.25 37 27.25C36.5955 27.25 36.198 27.3557 35.8469 27.5567C35.4958 27.7576 35.2033 28.0469 34.9985 28.3957L26.8 42.6335C26.6029 42.9709 26.499 43.3546 26.499 43.7454C26.499 44.1361 26.6029 44.5199 26.8 44.8572C27.0023 45.2082 27.2943 45.499 27.646 45.6998C27.9977 45.9006 28.3966 46.0043 28.8016 46.0001H45.1985C45.6032 46.0039 46.0016 45.9001 46.353 45.6993C46.7044 45.4985 46.9961 45.2079 47.1982 44.8572C47.3956 44.52 47.4998 44.1364 47.5001 43.7456C47.5004 43.3549 47.3969 42.9711 47.2 42.6335ZM45.8997 44.1063C45.8282 44.2282 45.7256 44.3289 45.6024 44.3981C45.4792 44.4673 45.3398 44.5025 45.1985 44.5001H28.8016C28.6603 44.5025 28.5209 44.4673 28.3977 44.3981C28.2744 44.3289 28.1718 44.2282 28.1003 44.1063C28.0356 43.9967 28.0015 43.8717 28.0015 43.7444C28.0015 43.6171 28.0356 43.4922 28.1003 43.3826L36.2988 29.1447C36.3717 29.0234 36.4748 28.923 36.598 28.8533C36.7212 28.7836 36.8603 28.747 37.0019 28.747C37.1435 28.747 37.2826 28.7836 37.4058 28.8533C37.529 28.923 37.6321 29.0234 37.705 29.1447L45.9035 43.3826C45.9676 43.4925 46.0011 43.6176 46.0005 43.7449C45.9998 43.8722 45.965 43.997 45.8997 44.1063ZM36.25 38.5001V34.7501C36.25 34.5511 36.329 34.3604 36.4697 34.2197C36.6104 34.0791 36.8011 34.0001 37 34.0001C37.1989 34.0001 37.3897 34.0791 37.5304 34.2197C37.671 34.3604 37.75 34.5511 37.75 34.7501V38.5001C37.75 38.699 37.671 38.8897 37.5304 39.0304C37.3897 39.171 37.1989 39.2501 37 39.2501C36.8011 39.2501 36.6104 39.171 36.4697 39.0304C36.329 38.8897 36.25 38.699 36.25 38.5001ZM38.125 41.8751C38.125 42.0976 38.059 42.3151 37.9354 42.5001C37.8118 42.6851 37.6361 42.8293 37.4305 42.9144C37.225 42.9996 36.9988 43.0219 36.7806 42.9784C36.5623 42.935 36.3619 42.8279 36.2045 42.6706C36.0472 42.5132 35.9401 42.3128 35.8966 42.0945C35.8532 41.8763 35.8755 41.6501 35.9607 41.4445C36.0458 41.239 36.19 41.0633 36.375 40.9397C36.56 40.816 36.7775 40.7501 37 40.7501C37.2984 40.7501 37.5845 40.8686 37.7955 41.0796C38.0065 41.2905 38.125 41.5767 38.125 41.8751Z" fill="#FF0000"/>
</svg>
