<svg width="73" height="73" viewBox="0 0 73 73" fill="none" xmlns="http://www.w3.org/2000/svg">
<rect x="0.15" y="0.15" width="72.7" height="72.7" rx="9.85" stroke="#9D9D9D" stroke-width="0.3"/>
<path d="M45.7936 41.4944C45.2733 40.5981 44.4999 38.0622 44.4999 34.75C44.4999 32.7609 43.7097 30.8532 42.3032 29.4467C40.8967 28.0402 38.989 27.25 36.9999 27.25C35.0108 27.25 33.1031 28.0402 31.6966 29.4467C30.2901 30.8532 29.4999 32.7609 29.4999 34.75C29.4999 38.0631 28.7255 40.5981 28.2052 41.4944C28.0723 41.7222 28.0019 41.9811 28.001 42.2449C28.0001 42.5086 28.0687 42.768 28.2 42.9967C28.3313 43.2255 28.5207 43.4156 28.7489 43.5478C28.9771 43.6801 29.2361 43.7498 29.4999 43.75H33.3258C33.4989 44.5967 33.959 45.3577 34.6285 45.9042C35.298 46.4507 36.1357 46.7492 36.9999 46.7492C37.8641 46.7492 38.7018 46.4507 39.3713 45.9042C40.0407 45.3577 40.5009 44.5967 40.674 43.75H44.4999C44.7636 43.7496 45.0225 43.6798 45.2506 43.5475C45.4787 43.4151 45.6678 43.225 45.799 42.9963C45.9302 42.7676 45.9988 42.5083 45.9979 42.2446C45.9969 41.9809 45.9265 41.7222 45.7936 41.4944ZM36.9999 45.25C36.5347 45.2499 36.081 45.1055 35.7013 44.8369C35.3215 44.5683 35.0343 44.1886 34.8793 43.75H39.1205C38.9655 44.1886 38.6783 44.5683 38.2985 44.8369C37.9188 45.1055 37.4651 45.2499 36.9999 45.25ZM29.4999 42.25C30.2218 41.0087 30.9999 38.1325 30.9999 34.75C30.9999 33.1587 31.632 31.6326 32.7572 30.5074C33.8825 29.3821 35.4086 28.75 36.9999 28.75C38.5912 28.75 40.1173 29.3821 41.2425 30.5074C42.3678 31.6326 42.9999 33.1587 42.9999 34.75C42.9999 38.1297 43.7761 41.0059 44.4999 42.25H29.4999Z" fill="black"/>
</svg>
