<svg width="55" height="15" viewBox="0 0 55 15" fill="none" xmlns="http://www.w3.org/2000/svg">
<rect x="0.25" y="0.25" width="54.5" height="14.5" rx="4.75" fill="#008000" fill-opacity="0.1" stroke="#008000" stroke-width="0.5"/>
<path d="M27.7344 7.42C27.7344 9.59 26.3244 11.12 24.3244 11.12C22.3144 11.12 20.9144 9.59 20.9144 7.42C20.9144 5.25 22.3244 3.71 24.3244 3.71C26.3344 3.71 27.7344 5.24 27.7344 7.42ZM26.9944 7.42C26.9944 5.63 25.9044 4.41 24.3244 4.41C22.7444 4.41 21.6644 5.63 21.6644 7.42C21.6644 9.21 22.7444 10.43 24.3244 10.43C25.9044 10.43 26.9944 9.2 26.9944 7.42ZM29.5799 11H28.8899V6.16H29.4899L29.5899 7C29.9099 6.38 30.5499 6.03 31.2499 6.03C32.5799 6.03 33.1299 6.82 33.1299 8.04V11H32.4399V8.19C32.4399 7.06 31.9299 6.66 31.1299 6.66C30.1399 6.66 29.5799 7.38 29.5799 8.47V11ZM35.2252 11H34.5352V3.71H35.2252V11ZM37.0327 4.83C36.7527 4.83 36.5227 4.6 36.5227 4.32C36.5227 4.04 36.7527 3.8 37.0327 3.8C37.3127 3.8 37.5527 4.04 37.5527 4.32C37.5527 4.6 37.3127 4.83 37.0327 4.83ZM36.6927 11V6.16H37.3827V11H36.6927ZM39.5116 11H38.8216V6.16H39.4216L39.5216 7C39.8416 6.38 40.4816 6.03 41.1816 6.03C42.5116 6.03 43.0616 6.82 43.0616 8.04V11H42.3716V8.19C42.3716 7.06 41.8616 6.66 41.0616 6.66C40.0716 6.66 39.5116 7.38 39.5116 8.47V11ZM46.4668 11.12C45.0468 11.12 44.0968 10.1 44.0968 8.58C44.0968 7.07 45.0368 6.03 46.4168 6.03C47.7268 6.03 48.6168 6.96 48.6168 8.33V8.67H44.7668C44.8168 9.85 45.4368 10.53 46.4768 10.53C47.2668 10.53 47.7768 10.19 47.9568 9.55H48.6168C48.3568 10.57 47.6068 11.12 46.4668 11.12ZM46.4168 6.62C45.5068 6.62 44.9068 7.22 44.7868 8.17H47.9268C47.9268 7.24 47.3268 6.62 46.4168 6.62Z" fill="#008000"/>
<circle cx="10" cy="8" r="5" fill="#008000"/>
</svg>
