<svg width="30" height="30" viewBox="0 0 30 30" fill="none" xmlns="http://www.w3.org/2000/svg">
<rect x="0.15" y="0.15" width="29.7" height="29.7" rx="6.85" stroke="#DADADA" stroke-width="0.3"/>
<path d="M21.387 13.7084L10.887 7.71526C10.7099 7.61556 10.5066 7.57219 10.3042 7.59093C10.1018 7.60968 9.90998 7.68964 9.75419 7.82018C9.5984 7.95071 9.48609 8.12562 9.43222 8.32159C9.37834 8.51757 9.38546 8.72531 9.45263 8.91714L11.367 14.5834L9.45263 20.2503C9.39935 20.4011 9.38302 20.5624 9.405 20.7208C9.42698 20.8793 9.48664 21.0301 9.57896 21.1607C9.67129 21.2913 9.79359 21.3978 9.9356 21.4714C10.0776 21.5449 10.2352 21.5833 10.3951 21.5834C10.5689 21.583 10.7396 21.5378 10.8908 21.4521L21.3857 15.449C21.5406 15.3623 21.6695 15.236 21.7593 15.083C21.8492 14.9299 21.8967 14.7558 21.897 14.5784C21.8973 14.4009 21.8505 14.2266 21.7612 14.0733C21.6719 13.92 21.5434 13.7932 21.3889 13.7059L21.387 13.7084ZM10.3951 20.5834C10.3954 20.5809 10.3954 20.5784 10.3951 20.5759L12.2539 15.0834H15.8951C16.0277 15.0834 16.1549 15.0307 16.2487 14.9369C16.3424 14.8432 16.3951 14.716 16.3951 14.5834C16.3951 14.4508 16.3424 14.3236 16.2487 14.2298C16.1549 14.1361 16.0277 14.0834 15.8951 14.0834H12.2539L10.3989 8.59339C10.3983 8.58985 10.397 8.58646 10.3951 8.58339L20.8951 14.5728L10.3951 20.5834Z" fill="black"/>
</svg>
