<svg width="30" height="30" viewBox="0 0 30 30" fill="none" xmlns="http://www.w3.org/2000/svg">
<rect x="0.15" y="0.15" width="29.7" height="29.7" rx="6.85" stroke="#DADADA" stroke-width="0.3"/>
<path d="M21.5334 14.1265L18.5334 17.1265C18.4396 17.2203 18.3124 17.273 18.1797 17.273C18.047 17.273 17.9198 17.2203 17.8259 17.1265C17.7321 17.0327 17.6794 16.9054 17.6794 16.7727C17.6794 16.6401 17.7321 16.5128 17.8259 16.419L19.9728 14.2727H17.4922C16.2726 14.2724 15.0875 14.6774 14.1232 15.4241C13.1589 16.1708 12.4702 17.2169 12.1653 18.3977C12.1322 18.5262 12.0493 18.6362 11.9351 18.7036C11.8208 18.771 11.6844 18.7903 11.5559 18.7571C11.4275 18.724 11.3174 18.6411 11.25 18.5269C11.1826 18.4126 11.1634 18.2762 11.1966 18.1477C11.5563 16.7518 12.3702 15.5152 13.5099 14.6326C14.6497 13.7501 16.0507 13.2716 17.4922 13.2727H19.9741L17.8259 11.1265C17.7795 11.08 17.7426 11.0249 17.7175 10.9642C17.6923 10.9035 17.6794 10.8384 17.6794 10.7727C17.6794 10.707 17.6923 10.642 17.7175 10.5813C17.7426 10.5206 17.7795 10.4654 17.8259 10.419C17.9198 10.3252 18.047 10.2725 18.1797 10.2725C18.2454 10.2725 18.3104 10.2854 18.3711 10.3105C18.4318 10.3357 18.487 10.3725 18.5334 10.419L21.5334 13.419C21.5799 13.4654 21.6168 13.5206 21.642 13.5813C21.6671 13.642 21.6801 13.707 21.6801 13.7727C21.6801 13.8384 21.6671 13.9035 21.642 13.9642C21.6168 14.0249 21.5799 14.0801 21.5334 14.1265ZM19.1797 20.2727H9.67969V12.7727C9.67969 12.6401 9.62701 12.513 9.53324 12.4192C9.43947 12.3254 9.3123 12.2727 9.17969 12.2727C9.04708 12.2727 8.9199 12.3254 8.82613 12.4192C8.73237 12.513 8.67969 12.6401 8.67969 12.7727V20.7727C8.67969 20.9053 8.73237 21.0325 8.82613 21.1263C8.9199 21.2201 9.04708 21.2727 9.17969 21.2727H19.1797C19.3123 21.2727 19.4395 21.2201 19.5332 21.1263C19.627 21.0325 19.6797 20.9053 19.6797 20.7727C19.6797 20.6401 19.627 20.513 19.5332 20.4192C19.4395 20.3254 19.3123 20.2727 19.1797 20.2727Z" fill="black"/>
</svg>
