<svg width="71" height="69" viewBox="0 0 71 69" fill="none" xmlns="http://www.w3.org/2000/svg">
<g opacity="0.05">
<path d="M59.7188 45.5C59.7188 46.2542 59.4191 46.9775 58.8858 47.5108C58.3525 48.0441 57.6292 48.3438 56.875 48.3438H34.125C33.3708 48.3438 32.6475 48.0441 32.1142 47.5108C31.5809 46.9775 31.2812 46.2542 31.2812 45.5C31.2812 44.7458 31.5809 44.0225 32.1142 43.4892C32.6475 42.9559 33.3708 42.6562 34.125 42.6562H56.875C57.6292 42.6562 58.3525 42.9559 58.8858 43.4892C59.4191 44.0225 59.7188 44.7458 59.7188 45.5ZM56.875 54.0312H34.125C33.3708 54.0312 32.6475 54.3309 32.1142 54.8642C31.5809 55.3975 31.2812 56.1208 31.2812 56.875C31.2812 57.6292 31.5809 58.3525 32.1142 58.8858C32.6475 59.4191 33.3708 59.7188 34.125 59.7188H56.875C57.6292 59.7188 58.3525 59.4191 58.8858 58.8858C59.4191 58.3525 59.7188 57.6292 59.7188 56.875C59.7188 56.1208 59.4191 55.3975 58.8858 54.8642C58.3525 54.3309 57.6292 54.0312 56.875 54.0312ZM76.7812 14.2188V71.0938C76.7812 74.1106 75.5828 77.0039 73.4496 79.1371C71.3164 81.2703 68.4231 82.4688 65.4062 82.4688H25.5938C22.5769 82.4688 19.6836 81.2703 17.5504 79.1371C15.4172 77.0039 14.2188 74.1106 14.2188 71.0938V14.2188C14.2188 13.4645 14.5184 12.7412 15.0517 12.2079C15.585 11.6746 16.3083 11.375 17.0625 11.375H25.5938V8.53125C25.5938 7.77704 25.8934 7.05372 26.4267 6.52041C26.96 5.98711 27.6833 5.6875 28.4375 5.6875C29.1917 5.6875 29.915 5.98711 30.4483 6.52041C30.9816 7.05372 31.2812 7.77704 31.2812 8.53125V11.375H42.6562V8.53125C42.6562 7.77704 42.9559 7.05372 43.4892 6.52041C44.0225 5.98711 44.7458 5.6875 45.5 5.6875C46.2542 5.6875 46.9775 5.98711 47.5108 6.52041C48.0441 7.05372 48.3438 7.77704 48.3438 8.53125V11.375H59.7188V8.53125C59.7188 7.77704 60.0184 7.05372 60.5517 6.52041C61.085 5.98711 61.8083 5.6875 62.5625 5.6875C63.3167 5.6875 64.04 5.98711 64.5733 6.52041C65.1066 7.05372 65.4062 7.77704 65.4062 8.53125V11.375H73.9375C74.6917 11.375 75.415 11.6746 75.9483 12.2079C76.4816 12.7412 76.7812 13.4645 76.7812 14.2188ZM71.0938 17.0625H65.4062V19.9062C65.4062 20.6605 65.1066 21.3838 64.5733 21.9171C64.04 22.4504 63.3167 22.75 62.5625 22.75C61.8083 22.75 61.085 22.4504 60.5517 21.9171C60.0184 21.3838 59.7188 20.6605 59.7188 19.9062V17.0625H48.3438V19.9062C48.3438 20.6605 48.0441 21.3838 47.5108 21.9171C46.9775 22.4504 46.2542 22.75 45.5 22.75C44.7458 22.75 44.0225 22.4504 43.4892 21.9171C42.9559 21.3838 42.6562 20.6605 42.6562 19.9062V17.0625H31.2812V19.9062C31.2812 20.6605 30.9816 21.3838 30.4483 21.9171C29.915 22.4504 29.1917 22.75 28.4375 22.75C27.6833 22.75 26.96 22.4504 26.4267 21.9171C25.8934 21.3838 25.5938 20.6605 25.5938 19.9062V17.0625H19.9062V71.0938C19.9062 72.6022 20.5055 74.0488 21.5721 75.1154C22.6387 76.182 24.0853 76.7812 25.5938 76.7812H65.4062C66.9147 76.7812 68.3613 76.182 69.4279 75.1154C70.4945 74.0488 71.0938 72.6022 71.0938 71.0938V17.0625Z" fill="#008000"/>
</g>
</svg>
