<svg width="31" height="31" viewBox="0 0 31 31" fill="none" xmlns="http://www.w3.org/2000/svg">
<g clip-path="url(#clip0_31_1545)">
<path d="M15.5 0C6.93964 0 0 6.93964 0 15.5C0 24.0608 6.93964 31 15.5 31C24.0608 31 31 24.0608 31 15.5C31 6.93964 24.0608 0 15.5 0ZM15.5 29.093C8.02173 29.093 1.9375 22.9783 1.9375 15.4999C1.9375 8.02167 8.02173 1.93744 15.5 1.93744C22.9783 1.93744 29.0625 8.0217 29.0625 15.4999C29.0625 22.9782 22.9783 29.093 15.5 29.093ZM22.2812 14.5312H16.4688V8.71875C16.4688 8.184 16.0347 7.75 15.5 7.75C14.9653 7.75 14.5312 8.184 14.5312 8.71875V14.5312H8.71875C8.184 14.5312 7.75 14.9653 7.75 15.5C7.75 16.0347 8.184 16.4688 8.71875 16.4688H14.5312V22.2812C14.5312 22.816 14.9653 23.25 15.5 23.25C16.0347 23.25 16.4688 22.816 16.4688 22.2812V16.4688H22.2812C22.816 16.4688 23.25 16.0347 23.25 15.5C23.25 14.9653 22.816 14.5312 22.2812 14.5312Z" fill="black" fill-opacity="0.5"/>
</g>
<defs>
<clipPath id="clip0_31_1545">
<rect width="31" height="31" fill="white"/>
</clipPath>
</defs>
</svg>
