<svg width="32" height="32" viewBox="0 0 32 32" fill="none" xmlns="http://www.w3.org/2000/svg">
<path d="M18.0001 18.6667H3.33341C3.1566 18.6667 2.98703 18.7369 2.86201 18.8619C2.73699 18.987 2.66675 19.1565 2.66675 19.3333C2.66675 19.5101 2.73699 19.6797 2.86201 19.8047C2.98703 19.9298 3.1566 20 3.33341 20H18.0001C18.1769 20 18.3465 19.9298 18.4715 19.8047C18.5965 19.6797 18.6667 19.5101 18.6667 19.3333C18.6667 19.1565 18.5965 18.987 18.4715 18.8619C18.3465 18.7369 18.1769 18.6667 18.0001 18.6667ZM28.6667 12H3.33341C3.1566 12 2.98703 12.0702 2.86201 12.1953C2.73699 12.3203 2.66675 12.4899 2.66675 12.6667C2.66675 12.8435 2.73699 13.013 2.86201 13.1381C2.98703 13.2631 3.1566 13.3333 3.33341 13.3333H28.6667C28.8436 13.3333 29.0131 13.2631 29.1382 13.1381C29.2632 13.013 29.3334 12.8435 29.3334 12.6667C29.3334 12.4899 29.2632 12.3203 29.1382 12.1953C29.0131 12.0702 28.8436 12 28.6667 12Z" fill="black"/>
</svg>
