<svg width="28" height="28" viewBox="0 0 28 28" fill="none" xmlns="http://www.w3.org/2000/svg">
<path d="M14 19.25C15.3924 19.25 16.7277 18.6969 17.7123 17.7123C18.6969 16.7277 19.25 15.3924 19.25 14C19.25 12.6076 18.6969 11.2723 17.7123 10.2877C16.7277 9.30312 15.3924 8.75 14 8.75C12.6076 8.75 11.2723 9.30312 10.2877 10.2877C9.30312 11.2723 8.75 12.6076 8.75 14C8.75 15.3924 9.30312 16.7277 10.2877 17.7123C11.2723 18.6969 12.6076 19.25 14 19.25ZM14 3.5C12.6211 3.5 11.2557 3.77159 9.98182 4.29926C8.70791 4.82694 7.55039 5.60036 6.57538 6.57538C5.60036 7.55039 4.82694 8.70791 4.29927 9.98182C3.77159 11.2557 3.5 12.6211 3.5 14C3.5 15.3789 3.77159 16.7443 4.29927 18.0182C4.82694 19.2921 5.60036 20.4496 6.57538 21.4246C7.55039 22.3996 8.70791 23.1731 9.98182 23.7007C11.2557 24.2284 12.6211 24.5 14 24.5C16.7848 24.5 19.4555 23.3938 21.4246 21.4246C23.3938 19.4555 24.5 16.7848 24.5 14C24.5 11.2152 23.3938 8.54451 21.4246 6.57538C19.4555 4.60625 16.7848 3.5 14 3.5ZM5.25 14C5.25 11.6794 6.17187 9.45376 7.81282 7.81282C9.45376 6.17187 11.6794 5.25 14 5.25C16.3206 5.25 18.5462 6.17187 20.1872 7.81282C21.8281 9.45376 22.75 11.6794 22.75 14C22.75 16.3206 21.8281 18.5462 20.1872 20.1872C18.5462 21.8281 16.3206 22.75 14 22.75C11.6794 22.75 9.45376 21.8281 7.81282 20.1872C6.17187 18.5462 5.25 16.3206 5.25 14Z" fill="black"/>
</svg>
