<svg width="39" height="39" viewBox="0 0 39 39" fill="none" xmlns="http://www.w3.org/2000/svg">
<path d="M32.5 32.5H32.5163M6.5 32.5H6.51625M13 32.5H13.0163M19.5 32.5H19.5163M26 32.5H26.0163M32.5 6.5H32.5163M6.5 6.5H6.51625M13 6.5H13.0163M19.5 6.5H19.5163M26 6.5V6.51625M6.5 14.625C6.5 14.194 6.67121 13.7807 6.97595 13.476C7.2807 13.1712 7.69402 13 8.125 13H30.875C31.306 13 31.7193 13.1712 32.024 13.476C32.3288 13.7807 32.5 14.194 32.5 14.625V24.375C32.5 24.806 32.3288 25.2193 32.024 25.524C31.7193 25.8288 31.306 26 30.875 26H8.125C7.69402 26 7.2807 25.8288 6.97595 25.524C6.67121 25.2193 6.5 24.806 6.5 24.375V14.625Z" stroke="black" stroke-width="2" stroke-linecap="round" stroke-linejoin="round"/>
</svg>
