<svg width="49" height="49" viewBox="0 0 49 49" fill="none" xmlns="http://www.w3.org/2000/svg">
<circle cx="24.5" cy="24.5" r="24" fill="#800080" fill-opacity="0.1" stroke="#800080"/>
<path d="M28.75 25C28.75 25.1989 28.671 25.3897 28.5303 25.5303C28.3897 25.671 28.1989 25.75 28 25.75H22C21.8011 25.75 21.6103 25.671 21.4697 25.5303C21.329 25.3897 21.25 25.1989 21.25 25C21.25 24.8011 21.329 24.6103 21.4697 24.4697C21.6103 24.329 21.8011 24.25 22 24.25H28C28.1989 24.25 28.3897 24.329 28.5303 24.4697C28.671 24.6103 28.75 24.8011 28.75 25ZM28 27.25H22C21.8011 27.25 21.6103 27.329 21.4697 27.4697C21.329 27.6103 21.25 27.8011 21.25 28C21.25 28.1989 21.329 28.3897 21.4697 28.5303C21.6103 28.671 21.8011 28.75 22 28.75H28C28.1989 28.75 28.3897 28.671 28.5303 28.5303C28.671 28.3897 28.75 28.1989 28.75 28C28.75 27.8011 28.671 27.6103 28.5303 27.4697C28.3897 27.329 28.1989 27.25 28 27.25ZM33.25 16.75V31.75C33.25 32.5456 32.9339 33.3087 32.3713 33.8713C31.8087 34.4339 31.0456 34.75 30.25 34.75H19.75C18.9544 34.75 18.1913 34.4339 17.6287 33.8713C17.0661 33.3087 16.75 32.5456 16.75 31.75V16.75C16.75 16.5511 16.829 16.3603 16.9697 16.2197C17.1103 16.079 17.3011 16 17.5 16H19.75V15.25C19.75 15.0511 19.829 14.8603 19.9697 14.7197C20.1103 14.579 20.3011 14.5 20.5 14.5C20.6989 14.5 20.8897 14.579 21.0303 14.7197C21.171 14.8603 21.25 15.0511 21.25 15.25V16H24.25V15.25C24.25 15.0511 24.329 14.8603 24.4697 14.7197C24.6103 14.579 24.8011 14.5 25 14.5C25.1989 14.5 25.3897 14.579 25.5303 14.7197C25.671 14.8603 25.75 15.0511 25.75 15.25V16H28.75V15.25C28.75 15.0511 28.829 14.8603 28.9697 14.7197C29.1103 14.579 29.3011 14.5 29.5 14.5C29.6989 14.5 29.8897 14.579 30.0303 14.7197C30.171 14.8603 30.25 15.0511 30.25 15.25V16H32.5C32.6989 16 32.8897 16.079 33.0303 16.2197C33.171 16.3603 33.25 16.5511 33.25 16.75ZM31.75 17.5H30.25V18.25C30.25 18.4489 30.171 18.6397 30.0303 18.7803C29.8897 18.921 29.6989 19 29.5 19C29.3011 19 29.1103 18.921 28.9697 18.7803C28.829 18.6397 28.75 18.4489 28.75 18.25V17.5H25.75V18.25C25.75 18.4489 25.671 18.6397 25.5303 18.7803C25.3897 18.921 25.1989 19 25 19C24.8011 19 24.6103 18.921 24.4697 18.7803C24.329 18.6397 24.25 18.4489 24.25 18.25V17.5H21.25V18.25C21.25 18.4489 21.171 18.6397 21.0303 18.7803C20.8897 18.921 20.6989 19 20.5 19C20.3011 19 20.1103 18.921 19.9697 18.7803C19.829 18.6397 19.75 18.4489 19.75 18.25V17.5H18.25V31.75C18.25 32.1478 18.408 32.5294 18.6893 32.8107C18.9706 33.092 19.3522 33.25 19.75 33.25H30.25C30.6478 33.25 31.0294 33.092 31.3107 32.8107C31.592 32.5294 31.75 32.1478 31.75 31.75V17.5Z" fill="#800080"/>
</svg>
