<svg width="63" height="70" viewBox="0 0 63 70" fill="none" xmlns="http://www.w3.org/2000/svg">
<path d="M45.7188 40.5C45.7188 41.2542 45.4191 41.9775 44.8858 42.5108C44.3525 43.0441 43.6292 43.3438 42.875 43.3438H20.125C19.3708 43.3438 18.6475 43.0441 18.1142 42.5108C17.5809 41.9775 17.2812 41.2542 17.2812 40.5C17.2812 39.7458 17.5809 39.0225 18.1142 38.4892C18.6475 37.9559 19.3708 37.6562 20.125 37.6562H42.875C43.6292 37.6562 44.3525 37.9559 44.8858 38.4892C45.4191 39.0225 45.7188 39.7458 45.7188 40.5ZM42.875 49.0312H20.125C19.3708 49.0312 18.6475 49.3309 18.1142 49.8642C17.5809 50.3975 17.2812 51.1208 17.2812 51.875C17.2812 52.6292 17.5809 53.3525 18.1142 53.8858C18.6475 54.4191 19.3708 54.7188 20.125 54.7188H42.875C43.6292 54.7188 44.3525 54.4191 44.8858 53.8858C45.4191 53.3525 45.7188 52.6292 45.7188 51.875C45.7188 51.1208 45.4191 50.3975 44.8858 49.8642C44.3525 49.3309 43.6292 49.0312 42.875 49.0312ZM62.7812 9.21875V66.0938C62.7812 69.1106 61.5828 72.0039 59.4496 74.1371C57.3164 76.2703 54.4231 77.4688 51.4062 77.4688H11.5938C8.57691 77.4688 5.68364 76.2703 3.55041 74.1371C1.41718 72.0039 0.21875 69.1106 0.21875 66.0938V9.21875C0.21875 8.46454 0.518359 7.74122 1.05167 7.20792C1.58497 6.67461 2.30829 6.375 3.0625 6.375H11.5938V3.53125C11.5938 2.77704 11.8934 2.05372 12.4267 1.52041C12.96 0.987108 13.6833 0.6875 14.4375 0.6875C15.1917 0.6875 15.915 0.987108 16.4483 1.52041C16.9816 2.05372 17.2812 2.77704 17.2812 3.53125V6.375H28.6562V3.53125C28.6562 2.77704 28.9559 2.05372 29.4892 1.52041C30.0225 0.987108 30.7458 0.6875 31.5 0.6875C32.2542 0.6875 32.9775 0.987108 33.5108 1.52041C34.0441 2.05372 34.3438 2.77704 34.3438 3.53125V6.375H45.7188V3.53125C45.7188 2.77704 46.0184 2.05372 46.5517 1.52041C47.085 0.987108 47.8083 0.6875 48.5625 0.6875C49.3167 0.6875 50.04 0.987108 50.5733 1.52041C51.1066 2.05372 51.4062 2.77704 51.4062 3.53125V6.375H59.9375C60.6917 6.375 61.415 6.67461 61.9483 7.20792C62.4816 7.74122 62.7812 8.46454 62.7812 9.21875ZM57.0938 12.0625H51.4062V14.9062C51.4062 15.6605 51.1066 16.3838 50.5733 16.9171C50.04 17.4504 49.3167 17.75 48.5625 17.75C47.8083 17.75 47.085 17.4504 46.5517 16.9171C46.0184 16.3838 45.7188 15.6605 45.7188 14.9062V12.0625H34.3438V14.9062C34.3438 15.6605 34.0441 16.3838 33.5108 16.9171C32.9775 17.4504 32.2542 17.75 31.5 17.75C30.7458 17.75 30.0225 17.4504 29.4892 16.9171C28.9559 16.3838 28.6562 15.6605 28.6562 14.9062V12.0625H17.2812V14.9062C17.2812 15.6605 16.9816 16.3838 16.4483 16.9171C15.915 17.4504 15.1917 17.75 14.4375 17.75C13.6833 17.75 12.96 17.4504 12.4267 16.9171C11.8934 16.3838 11.5938 15.6605 11.5938 14.9062V12.0625H5.90625V66.0938C5.90625 67.6022 6.50547 69.0488 7.57208 70.1154C8.63869 71.182 10.0853 71.7812 11.5938 71.7812H51.4062C52.9147 71.7812 54.3613 71.182 55.4279 70.1154C56.4945 69.0488 57.0938 67.6022 57.0938 66.0938V12.0625Z" fill="#800080"/>
</svg>
