<svg width="74" height="48" viewBox="0 0 74 48" fill="none" xmlns="http://www.w3.org/2000/svg">
<path d="M43.5646 12.345C40.7524 12.345 38.0033 13.1789 35.6651 14.7413C33.3268 16.3036 31.5043 18.5243 30.4282 21.1224C29.352 23.7206 29.0704 26.5795 29.619 29.3377C30.1677 32.0958 31.5219 34.6294 33.5104 36.6179C35.4989 38.6064 38.0325 39.9606 40.7906 40.5093C43.5488 41.0579 46.4077 40.7763 49.0059 39.7001C51.604 38.624 53.8247 36.8015 55.387 34.4632C56.9494 32.125 57.7833 29.3759 57.7833 26.5637C57.7833 22.7927 56.2853 19.1761 53.6188 16.5095C50.9522 13.843 47.3356 12.345 43.5646 12.345ZM43.5646 35.095C41.8773 35.095 40.2278 34.5946 38.8249 33.6572C37.4219 32.7198 36.3284 31.3874 35.6827 29.8285C35.037 28.2696 34.8681 26.5543 35.1973 24.8994C35.5264 23.2445 36.339 21.7243 37.5321 20.5312C38.7252 19.3381 40.2453 18.5256 41.9002 18.1964C43.5551 17.8672 45.2705 18.0362 46.8293 18.6819C48.3882 19.3276 49.7206 20.4211 50.6581 21.824C51.5955 23.227 52.0958 24.8764 52.0958 26.5637C52.0958 28.8263 51.197 30.9963 49.5971 32.5962C47.9972 34.1961 45.8272 35.095 43.5646 35.095ZM83.3771 0.969971H3.75208C2.99787 0.969971 2.27455 1.26958 1.74124 1.80289C1.20793 2.33619 0.908325 3.05951 0.908325 3.81372V49.3137C0.908325 50.0679 1.20793 50.7913 1.74124 51.3246C2.27455 51.8579 2.99787 52.1575 3.75208 52.1575H83.3771C84.1313 52.1575 84.8546 51.8579 85.3879 51.3246C85.9212 50.7913 86.2208 50.0679 86.2208 49.3137V3.81372C86.2208 3.05951 85.9212 2.33619 85.3879 1.80289C84.8546 1.26958 84.1313 0.969971 83.3771 0.969971ZM66.9011 46.47H20.2281C19.2733 43.2409 17.5258 40.302 15.1448 37.921C12.7638 35.54 9.82489 33.7925 6.59583 32.8377V20.2897C9.82489 19.3349 12.7638 17.5875 15.1448 15.2064C17.5258 12.8254 19.2733 9.88654 20.2281 6.65747H66.9011C67.8559 9.88654 69.6033 12.8254 71.9844 15.2064C74.3654 17.5875 77.3043 19.3349 80.5333 20.2897V32.8377C77.3043 33.7925 74.3654 35.54 71.9844 37.921C69.6033 40.302 67.8559 43.2409 66.9011 46.47ZM80.5333 14.2538C77.1224 12.7871 74.4036 10.0684 72.937 6.65747H80.5333V14.2538ZM14.1922 6.65747C12.7255 10.0684 10.0068 12.7871 6.59583 14.2538V6.65747H14.1922ZM6.59583 38.8736C10.0068 40.3403 12.7255 43.059 14.1922 46.47H6.59583V38.8736ZM72.937 46.47C74.4036 43.059 77.1224 40.3403 80.5333 38.8736V46.47H72.937Z" fill="#008000"/>
</svg>
