<svg width="49" height="49" viewBox="0 0 49 49" fill="none" xmlns="http://www.w3.org/2000/svg">
<circle cx="24.5" cy="24.5" r="24" fill="#008000" fill-opacity="0.1" stroke="#008000"/>
<g clip-path="url(#clip0_4_30)">
<path d="M25.0646 21.3137C24.3229 21.3137 23.5979 21.5337 22.9812 21.9457C22.3645 22.3578 21.8839 22.9434 21.6 23.6287C21.3162 24.3139 21.2419 25.0679 21.3866 25.7953C21.5313 26.5227 21.8885 27.1909 22.4129 27.7154C22.9374 28.2398 23.6056 28.597 24.333 28.7417C25.0604 28.8864 25.8144 28.8121 26.4996 28.5283C27.1849 28.2444 27.7705 27.7638 28.1826 27.1471C28.5946 26.5304 28.8146 25.8054 28.8146 25.0637C28.8146 24.0692 28.4195 23.1153 27.7162 22.4121C27.013 21.7088 26.0591 21.3137 25.0646 21.3137ZM25.0646 27.3137C24.6196 27.3137 24.1846 27.1818 23.8145 26.9345C23.4445 26.6873 23.1561 26.3359 22.9858 25.9248C22.8155 25.5136 22.771 25.0612 22.8578 24.6248C22.9446 24.1883 23.1589 23.7874 23.4736 23.4727C23.7883 23.1581 24.1892 22.9438 24.6256 22.857C25.0621 22.7701 25.5145 22.8147 25.9256 22.985C26.3367 23.1553 26.6881 23.4437 26.9354 23.8137C27.1826 24.1837 27.3146 24.6187 27.3146 25.0637C27.3146 25.6605 27.0775 26.2328 26.6556 26.6547C26.2336 27.0767 25.6613 27.3137 25.0646 27.3137ZM35.5646 18.3137H14.5646C14.3657 18.3137 14.1749 18.3927 14.0342 18.5334C13.8936 18.674 13.8146 18.8648 13.8146 19.0637V31.0637C13.8146 31.2626 13.8936 31.4534 14.0342 31.5941C14.1749 31.7347 14.3657 31.8137 14.5646 31.8137H35.5646C35.7635 31.8137 35.9543 31.7347 36.0949 31.5941C36.2356 31.4534 36.3146 31.2626 36.3146 31.0637V19.0637C36.3146 18.8648 36.2356 18.674 36.0949 18.5334C35.9543 18.3927 35.7635 18.3137 35.5646 18.3137ZM31.2193 30.3137H18.9099C18.6581 29.4621 18.1972 28.687 17.5692 28.059C16.9413 27.4311 16.1662 26.9702 15.3146 26.7184V23.409C16.1662 23.1572 16.9413 22.6964 17.5692 22.0684C18.1972 21.4404 18.6581 20.6653 18.9099 19.8137H31.2193C31.4711 20.6653 31.9319 21.4404 32.5599 22.0684C33.1879 22.6964 33.963 23.1572 34.8146 23.409V26.7184C33.963 26.9702 33.1879 27.4311 32.5599 28.059C31.9319 28.687 31.4711 29.4621 31.2193 30.3137ZM34.8146 21.8172C33.915 21.4303 33.198 20.7133 32.8111 19.8137H34.8146V21.8172ZM17.318 19.8137C16.9312 20.7133 16.2142 21.4303 15.3146 21.8172V19.8137H17.318ZM15.3146 28.3103C16.2142 28.6971 16.9312 29.4141 17.318 30.3137H15.3146V28.3103ZM32.8111 30.3137C33.198 29.4141 33.915 28.6971 34.8146 28.3103V30.3137H32.8111Z" fill="#008000"/>
</g>
<defs>
<clipPath id="clip0_4_30">
<rect width="24" height="24" fill="white" transform="translate(13.0646 13.0637)"/>
</clipPath>
</defs>
</svg>
