<svg width="49" height="49" viewBox="0 0 49 49" fill="none" xmlns="http://www.w3.org/2000/svg">
<circle cx="24.5" cy="24.5" r="24" fill="#FF0000" fill-opacity="0.1" stroke="#FF0000"/>
<path d="M23.9922 27.805C24.9974 27.1358 25.7605 26.1609 26.1688 25.0244C26.577 23.8879 26.6087 22.6502 26.2592 21.4944C25.9096 20.3385 25.1973 19.3258 24.2277 18.6061C23.2581 17.8863 22.0826 17.4977 20.875 17.4977C19.6674 17.4977 18.4919 17.8863 17.5223 18.6061C16.5526 19.3258 15.8404 20.3385 15.4908 21.4944C15.1413 22.6502 15.1729 23.8879 15.5812 25.0244C15.9895 26.1609 16.7526 27.1358 17.7578 27.805C15.9395 28.4751 14.3866 29.7152 13.3309 31.3403C13.2754 31.4227 13.2369 31.5154 13.2175 31.6129C13.1982 31.7104 13.1984 31.8108 13.2182 31.9082C13.238 32.0056 13.2769 32.0981 13.3327 32.1803C13.3886 32.2625 13.4602 32.3328 13.5435 32.3871C13.6267 32.4414 13.7199 32.4787 13.8177 32.4966C13.9154 32.5146 14.0158 32.5129 14.1129 32.4917C14.21 32.4706 14.302 32.4303 14.3834 32.3733C14.4648 32.3163 14.5341 32.2437 14.5872 32.1597C15.2682 31.1123 16.2 30.2516 17.2981 29.6558C18.3962 29.0599 19.6257 28.7479 20.875 28.7479C22.1243 28.7479 23.3538 29.0599 24.4519 29.6558C25.55 30.2516 26.4818 31.1123 27.1628 32.1597C27.2728 32.3231 27.4427 32.4368 27.6358 32.476C27.829 32.5152 28.0297 32.4768 28.1948 32.3692C28.3598 32.2615 28.4759 32.0932 28.5179 31.9007C28.5598 31.7082 28.5243 31.5068 28.419 31.3403C27.3633 29.7152 25.8105 28.4751 23.9922 27.805ZM16.75 23.125C16.75 22.3091 16.9919 21.5116 17.4452 20.8332C17.8984 20.1549 18.5427 19.6262 19.2964 19.314C20.0502 19.0017 20.8796 18.9201 21.6797 19.0792C22.4799 19.2384 23.2149 19.6313 23.7918 20.2081C24.3687 20.785 24.7616 21.52 24.9207 22.3202C25.0799 23.1204 24.9982 23.9498 24.686 24.7035C24.3738 25.4573 23.8451 26.1015 23.1667 26.5548C22.4884 27.008 21.6908 27.25 20.875 27.25C19.7813 27.2487 18.7329 26.8137 17.9595 26.0404C17.1862 25.2671 16.7512 24.2186 16.75 23.125ZM36.4506 32.3781C36.284 32.4867 36.0811 32.5247 35.8865 32.4838C35.6919 32.4428 35.5215 32.3262 35.4128 32.1597C34.7326 31.1116 33.8009 30.2506 32.7026 29.655C31.6043 29.0594 30.3744 28.7483 29.125 28.75C28.9261 28.75 28.7353 28.6709 28.5947 28.5303C28.454 28.3896 28.375 28.1989 28.375 28C28.375 27.8011 28.454 27.6103 28.5947 27.4696C28.7353 27.329 28.9261 27.25 29.125 27.25C29.7325 27.2494 30.3323 27.1147 30.8817 26.8554C31.431 26.5961 31.9163 26.2187 32.3029 25.7501C32.6895 25.2815 32.9679 24.7334 33.1181 24.1448C33.2682 23.5561 33.2866 22.9416 33.1717 22.3451C33.0569 21.7486 32.8117 21.1848 32.4537 20.694C32.0957 20.2032 31.6337 19.7976 31.1008 19.5061C30.5678 19.2145 29.9771 19.0443 29.3707 19.0075C28.7644 18.9708 28.1574 19.0684 27.5931 19.2934C27.5011 19.3332 27.4021 19.3541 27.3018 19.3549C27.2016 19.3558 27.1022 19.3365 27.0096 19.2983C26.9169 19.2601 26.8329 19.2037 26.7624 19.1325C26.6919 19.0612 26.6364 18.9766 26.5992 18.8835C26.5619 18.7905 26.5437 18.6909 26.5456 18.5907C26.5476 18.4905 26.5695 18.3916 26.6103 18.3001C26.651 18.2085 26.7097 18.126 26.7829 18.0575C26.856 17.989 26.9422 17.9359 27.0362 17.9012C28.3276 17.3862 29.764 17.3677 31.0682 17.8492C32.3724 18.3307 33.4521 19.2782 34.099 20.5088C34.7459 21.7394 34.9141 23.166 34.5712 24.5133C34.2283 25.8607 33.3986 27.0333 32.2422 27.805C34.0605 28.4751 35.6133 29.7152 36.669 31.3403C36.7777 31.5069 36.8157 31.7098 36.7747 31.9044C36.7338 32.099 36.6172 32.2694 36.4506 32.3781Z" fill="#FF0000"/>
</svg>
