<svg width="91" height="52" viewBox="0 0 91 52" fill="none" xmlns="http://www.w3.org/2000/svg">
<path d="M41.6787 39.1357C45.49 36.5984 48.3836 32.9018 49.9316 28.5927C51.4796 24.2836 51.5997 19.5907 50.2743 15.2081C48.9489 10.8254 46.2482 6.98561 42.5717 4.25653C38.8952 1.52745 34.4381 0.0539551 29.8594 0.0539551C25.2806 0.0539551 20.8235 1.52745 17.147 4.25653C13.4705 6.98561 10.7698 10.8254 9.44439 15.2081C8.11896 19.5907 8.23912 24.2836 9.78709 28.5927C11.3351 32.9018 14.2287 36.5984 18.04 39.1357C11.1457 41.6768 5.25774 46.3789 1.25478 52.5405C1.0444 52.8531 0.89827 53.2045 0.824883 53.5742C0.751496 53.9438 0.752318 54.3244 0.8273 54.6937C0.902283 55.0631 1.04993 55.4138 1.26166 55.7256C1.47339 56.0373 1.74498 56.3039 2.06064 56.5098C2.3763 56.7157 2.72974 56.8568 3.10041 56.9249C3.47107 56.993 3.85158 56.9867 4.2198 56.9065C4.58803 56.8262 4.93663 56.6735 5.24534 56.4574C5.55405 56.2412 5.81671 55.9658 6.01806 55.6473C8.60015 51.6759 12.1334 48.4125 16.2969 46.1533C20.4605 43.8942 25.1224 42.7109 29.8594 42.7109C34.5963 42.7109 39.2582 43.8942 43.4218 46.1533C47.5853 48.4125 51.1186 51.6759 53.7006 55.6473C54.1177 56.2672 54.762 56.698 55.4943 56.8467C56.2265 56.9953 56.9878 56.8498 57.6136 56.4417C58.2394 56.0335 58.6795 55.3954 58.8386 54.6654C58.9977 53.9354 58.8631 53.1721 58.4639 52.5405C54.461 46.3789 48.573 41.6768 41.6787 39.1357ZM14.2187 21.3907C14.2187 18.2973 15.136 15.2734 16.8546 12.7013C18.5733 10.1292 21.016 8.12448 23.8739 6.94068C26.7319 5.75688 29.8767 5.44714 32.9107 6.05064C35.9447 6.65414 38.7316 8.14376 40.9189 10.3311C43.1063 12.5185 44.5959 15.3054 45.1994 18.3394C45.8029 21.3734 45.4932 24.5182 44.3094 27.3761C43.1256 30.2341 41.1209 32.6768 38.5488 34.3954C35.9767 36.114 32.9528 37.0314 29.8594 37.0314C25.7126 37.0267 21.7371 35.3773 18.805 32.4451C15.8728 29.513 14.2234 25.5374 14.2187 21.3907ZM88.9169 56.4755C88.2853 56.8874 87.5158 57.0316 86.7779 56.8762C86.04 56.7209 85.3939 56.2788 84.9819 55.6473C82.4029 51.6735 78.8701 48.4087 74.7057 46.1505C70.5413 43.8922 65.8779 42.7125 61.1406 42.7189C60.3864 42.7189 59.6631 42.4193 59.1298 41.8859C58.5965 41.3526 58.2969 40.6293 58.2969 39.8751C58.2969 39.1209 58.5965 38.3976 59.1298 37.8643C59.6631 37.331 60.3864 37.0314 61.1406 37.0314C63.4439 37.0292 65.7183 36.5183 67.8013 35.5352C69.8843 34.5522 71.7245 33.1212 73.1904 31.3445C74.6562 29.5678 75.7115 27.4893 76.281 25.2574C76.8504 23.0256 76.9199 20.6955 76.4844 18.4338C76.049 16.172 75.1193 14.0343 73.7619 12.1734C72.4045 10.3126 70.6529 8.77446 68.6321 7.66905C66.6114 6.56363 64.3715 5.91817 62.0723 5.77878C59.7732 5.63939 57.4717 6.00952 55.3322 6.86272C54.9834 7.01352 54.6079 7.09287 54.2279 7.09609C53.8478 7.0993 53.471 7.02631 53.1197 6.88142C52.7684 6.73654 52.4496 6.52271 52.1823 6.25256C51.9151 5.98242 51.7046 5.66143 51.5635 5.30858C51.4223 4.95573 51.3534 4.57816 51.3606 4.1982C51.3678 3.81823 51.4512 3.44358 51.6057 3.09636C51.7602 2.74915 51.9827 2.43643 52.2601 2.17667C52.5375 1.91691 52.8642 1.71539 53.2208 1.58401C58.1172 -0.368749 63.5633 -0.439021 68.5085 1.38675C73.4537 3.21253 77.5476 6.80498 80.0003 11.4711C82.4531 16.1372 83.0909 21.5463 81.7908 26.6549C80.4907 31.7636 77.3448 36.2097 72.9599 39.1357C79.8543 41.6768 85.7422 46.3789 89.7452 52.5405C90.1571 53.1721 90.3012 53.9415 90.1459 54.6795C89.9906 55.4174 89.5485 56.0635 88.9169 56.4755Z" fill="#FF0000"/>
</svg>
