<svg width="76" height="52" viewBox="0 0 76 52" fill="none" xmlns="http://www.w3.org/2000/svg">
<path d="M41.6787 39.1356C45.49 36.5982 48.3836 32.9017 49.9316 28.5926C51.4796 24.2835 51.5997 19.5906 50.2743 15.2079C48.9489 10.8253 46.2482 6.98549 42.5717 4.25641C38.8952 1.52732 34.4381 0.053833 29.8594 0.053833C25.2806 0.053833 20.8235 1.52732 17.147 4.25641C13.4705 6.98549 10.7698 10.8253 9.44439 15.2079C8.11896 19.5906 8.23912 24.2835 9.78709 28.5926C11.3351 32.9017 14.2287 36.5982 18.04 39.1356C11.1457 41.6766 5.25774 46.3788 1.25478 52.5403C1.0444 52.853 0.89827 53.2044 0.824883 53.5741C0.751496 53.9437 0.752318 54.3243 0.8273 54.6936C0.902283 55.0629 1.04993 55.4137 1.26166 55.7255C1.47339 56.0372 1.74498 56.3038 2.06064 56.5097C2.3763 56.7156 2.72974 56.8567 3.10041 56.9248C3.47107 56.9929 3.85158 56.9866 4.2198 56.9063C4.58803 56.8261 4.93663 56.6734 5.24534 56.4573C5.55405 56.2411 5.81671 55.9657 6.01806 55.6471C8.60015 51.6758 12.1334 48.4123 16.2969 46.1532C20.4605 43.894 25.1224 42.7107 29.8594 42.7107C34.5963 42.7107 39.2582 43.894 43.4218 46.1532C47.5853 48.4123 51.1186 51.6758 53.7006 55.6471C54.1177 56.267 54.762 56.6979 55.4943 56.8466C56.2265 56.9952 56.9878 56.8497 57.6136 56.4415C58.2394 56.0334 58.6795 55.3953 58.8386 54.6653C58.9977 53.9352 58.8631 53.1719 58.4639 52.5403C54.461 46.3788 48.573 41.6766 41.6787 39.1356ZM14.2187 21.3906C14.2187 18.2972 15.136 15.2732 16.8546 12.7011C18.5733 10.1291 21.016 8.12436 23.8739 6.94056C26.7319 5.75676 29.8767 5.44702 32.9107 6.05052C35.9447 6.65402 38.7316 8.14364 40.9189 10.331C43.1063 12.5184 44.5959 15.3053 45.1994 18.3393C45.8029 21.3733 45.4932 24.5181 44.3094 27.376C43.1256 30.234 41.1209 32.6767 38.5488 34.3953C35.9767 36.1139 32.9528 37.0312 29.8594 37.0312C25.7126 37.0265 21.7371 35.3772 18.805 32.445C15.8728 29.5128 14.2234 25.5373 14.2187 21.3906ZM88.9169 56.4754C88.2853 56.8873 87.5158 57.0314 86.7779 56.8761C86.04 56.7208 85.3939 56.2787 84.9819 55.6471C82.4029 51.6734 78.8701 48.4086 74.7057 46.1503C70.5413 43.8921 65.8779 42.7124 61.1406 42.7187C60.3864 42.7187 59.6631 42.4191 59.1298 41.8858C58.5965 41.3525 58.2969 40.6292 58.2969 39.875C58.2969 39.1208 58.5965 38.3975 59.1298 37.8641C59.6631 37.3308 60.3864 37.0312 61.1406 37.0312C63.4439 37.0291 65.7183 36.5182 67.8013 35.5351C69.8843 34.552 71.7245 33.121 73.1904 31.3444C74.6562 29.5677 75.7115 27.4891 76.281 25.2573C76.8504 23.0255 76.9199 20.6954 76.4844 18.4336C76.049 16.1718 75.1193 14.0342 73.7619 12.1733C72.4045 10.3124 70.6529 8.77434 68.6321 7.66892C66.6114 6.56351 64.3715 5.91804 62.0723 5.77866C59.7732 5.63927 57.4717 6.0094 55.3322 6.8626C54.9834 7.0134 54.6079 7.09275 54.2279 7.09596C53.8478 7.09917 53.471 7.02618 53.1197 6.8813C52.7684 6.73642 52.4496 6.52259 52.1823 6.25244C51.9151 5.98229 51.7046 5.66131 51.5635 5.30846C51.4223 4.95561 51.3534 4.57804 51.3606 4.19808C51.3678 3.81811 51.4512 3.44345 51.6057 3.09624C51.7602 2.74903 51.9827 2.4363 52.2601 2.17655C52.5375 1.91679 52.8642 1.71527 53.2208 1.58389C58.1172 -0.368871 63.5633 -0.439143 68.5085 1.38663C73.4537 3.21241 77.5476 6.80486 80.0003 11.471C82.4531 16.1371 83.0909 21.5462 81.7908 26.6548C80.4907 31.7634 77.3448 36.2096 72.9599 39.1356C79.8543 41.6766 85.7422 46.3788 89.7452 52.5403C90.1571 53.172 90.3012 53.9414 90.1459 54.6794C89.9906 55.4173 89.5485 56.0633 88.9169 56.4754Z" fill="#FF0000"/>
</svg>
